<svg width="289" height="422" viewBox="0 0 289 422" fill="none" xmlns="http://www.w3.org/2000/svg">
<g opacity="0.4">
<path d="M242.933 144.15L10.9306 186.884L-63.7246 337.056L168.278 294.322L242.933 144.15Z" stroke="#6681B9" stroke-miterlimit="1"/>
<path d="M242.933 144.151L10.9307 186.884L-34.207 126.987L197.795 84.2541L242.933 144.151Z" stroke="#6681B9" stroke-miterlimit="1"/>
<path d="M10.9306 186.884L-63.7245 337.056L-108.862 277.159L-34.2071 126.987L10.9306 186.884Z" stroke="#6681B9" stroke-miterlimit="1"/>
<path d="M168.278 294.322L-63.7246 337.056L-108.862 277.159L123.14 234.426L168.278 294.322Z" stroke="#6681B9" stroke-miterlimit="1"/>
<path d="M168.278 294.322L242.933 144.15L197.795 84.2538L123.14 234.426L168.278 294.322Z" stroke="#6681B9" stroke-miterlimit="1"/>
<path d="M197.795 84.254L-34.2071 126.987L-108.862 277.159L123.14 234.426L197.795 84.254Z" stroke="#6681B9" stroke-miterlimit="1"/>
</g>
</svg>
