<svg width="28" height="28" viewBox="0 0 28 28" fill="none" xmlns="http://www.w3.org/2000/svg">
<g id="instagram">
<path id="Vector" d="M19.2404 2.49609H8.04043C4.94763 2.49609 2.44043 5.0033 2.44043 8.09609V19.2961C2.44043 22.3889 4.94763 24.8961 8.04043 24.8961H19.2404C22.3332 24.8961 24.8404 22.3889 24.8404 19.2961V8.09609C24.8404 5.0033 22.3332 2.49609 19.2404 2.49609Z" stroke="#6681B9" stroke-width="2.24" stroke-linecap="round" stroke-linejoin="round"/>
<path id="Vector_2" d="M18.1205 12.9899C18.2588 13.922 18.0995 14.8739 17.6655 15.7104C17.2315 16.5468 16.5449 17.225 15.7032 17.6487C14.8615 18.0723 13.9076 18.2198 12.9773 18.0701C12.0469 17.9204 11.1875 17.4811 10.5212 16.8148C9.85484 16.1485 9.41559 15.2891 9.26589 14.3587C9.11618 13.4284 9.26364 12.4745 9.6873 11.6328C10.1109 10.7911 10.7892 10.1044 11.6256 9.67045C12.462 9.23645 13.414 9.07723 14.3461 9.21545C15.2969 9.35645 16.1772 9.79949 16.8568 10.4792C17.5365 11.1588 17.9795 12.0391 18.1205 12.9899Z" stroke="#6681B9" stroke-width="2.24" stroke-linecap="round" stroke-linejoin="round"/>
<path id="Vector_3" d="M19.7998 7.53613H19.811" stroke="#6681B9" stroke-width="2.24" stroke-linecap="round" stroke-linejoin="round"/>
</g>
</svg>
