<svg width="407" height="303" viewBox="0 0 407 303" fill="none" xmlns="http://www.w3.org/2000/svg">
<path d="M406.193 265.975H0V266.178H406.193V265.975Z" fill="#EBEBEB"/>
<path d="M365.492 279.046H347.88V279.249H365.492V279.046Z" fill="#EBEBEB"/>
<path d="M280.005 274.838H252.295V275.041H280.005V274.838Z" fill="#EBEBEB"/>
<path d="M358.36 271.507H322.185V271.71H358.36V271.507Z" fill="#EBEBEB"/>
<path d="M140.559 275.602H131.509V275.805H140.559V275.602Z" fill="#EBEBEB"/>
<path d="M124.271 275.602H93.083V275.805H124.271V275.602Z" fill="#EBEBEB"/>
<path d="M76.3722 272.174H53.8691V272.377H76.3722V272.174Z" fill="#EBEBEB"/>
<path d="M192.535 229.743H35.6716C34.4428 229.741 33.265 229.251 32.3968 228.381C31.5286 227.512 31.041 226.333 31.041 225.104V4.5981C31.0517 3.3763 31.544 2.20805 32.4111 1.34711C33.2781 0.486179 34.4498 0.00209302 35.6716 0H192.535C193.766 0 194.945 0.488721 195.815 1.35865C196.685 2.22858 197.174 3.40846 197.174 4.63872V225.104C197.174 226.334 196.685 227.514 195.815 228.384C194.945 229.254 193.766 229.743 192.535 229.743ZM35.6716 0.162478C34.4966 0.16463 33.3705 0.632902 32.5404 1.46451C31.7103 2.29612 31.2441 3.42311 31.2441 4.5981V225.104C31.2441 226.279 31.7103 227.406 32.5404 228.238C33.3705 229.069 34.4966 229.537 35.6716 229.54H192.535C193.711 229.538 194.838 229.069 195.669 228.238C196.501 227.407 196.969 226.28 196.971 225.104V4.5981C196.969 3.42236 196.501 2.29539 195.669 1.46401C194.838 0.632638 193.711 0.164625 192.535 0.162478H35.6716Z" fill="#EBEBEB"/>
<path d="M368.262 229.743H211.391C210.161 229.741 208.982 229.251 208.113 228.382C207.244 227.512 206.754 226.334 206.752 225.104V4.5981C206.765 3.37556 207.259 2.20732 208.127 1.34661C208.996 0.485895 210.168 0.0020702 211.391 0H368.262C369.483 0.00422806 370.652 0.489259 371.518 1.34996C372.383 2.21067 372.874 3.3777 372.885 4.5981V225.104C372.885 226.331 372.398 227.509 371.532 228.378C370.666 229.248 369.49 229.738 368.262 229.743ZM211.391 0.162478C210.215 0.164625 209.088 0.632638 208.257 1.46401C207.425 2.29539 206.957 3.42236 206.955 4.5981V225.104C206.957 226.28 207.425 227.407 208.257 228.238C209.088 229.069 210.215 229.538 211.391 229.54H368.262C369.438 229.538 370.565 229.069 371.396 228.238C372.228 227.407 372.696 226.28 372.698 225.104V4.5981C372.696 3.42236 372.228 2.29539 371.396 1.46401C370.565 0.632638 369.438 0.164625 368.262 0.162478H211.391Z" fill="#EBEBEB"/>
<path d="M93.4247 97.1859C97.93 97.1859 102.251 95.3962 105.436 92.2105C108.622 89.0248 110.412 84.7041 110.412 80.1989C110.412 75.6937 108.622 71.373 105.436 68.1873C102.251 65.0016 97.93 63.2119 93.4247 63.2119H91.3369V97.1859H93.4247Z" fill="#E0E0E0"/>
<path d="M91.32 97.1859C100.702 97.1859 108.307 89.5806 108.307 80.1989C108.307 70.8173 100.702 63.2119 91.32 63.2119C81.9383 63.2119 74.333 70.8173 74.333 80.1989C74.333 89.5806 81.9383 97.1859 91.32 97.1859Z" fill="#F5F5F5"/>
<path d="M90.5408 82.3265C84.5079 82.3265 78.7222 79.93 74.4563 75.6641C70.1905 71.3983 67.7939 65.6125 67.7939 59.5797V46.0047C67.7939 45.4381 68.019 44.8946 68.4197 44.494C68.8204 44.0933 69.3639 43.8682 69.9305 43.8682C70.4972 43.8682 71.0406 44.0933 71.4413 44.494C71.842 44.8946 72.0671 45.4381 72.0671 46.0047V59.5878C72.0714 64.4846 74.018 69.1797 77.4798 72.6431C80.9416 76.1064 85.6358 78.055 90.5326 78.0615C90.8237 78.0435 91.1155 78.0853 91.3898 78.1844C91.6641 78.2834 91.9153 78.4376 92.1278 78.6374C92.3403 78.8371 92.5097 79.0783 92.6254 79.346C92.7412 79.6138 92.8009 79.9023 92.8009 80.194C92.8009 80.4857 92.7412 80.7743 92.6254 81.042C92.5097 81.3097 92.3403 81.5509 92.1278 81.7507C91.9153 81.9504 91.6641 82.1046 91.3898 82.2036C91.1155 82.3027 90.8237 82.3445 90.5326 82.3265H90.5408Z" fill="#E0E0E0"/>
<path d="M51.0424 57.964H88.8345C89.4389 57.9641 90.0353 57.8254 90.5777 57.5587C91.12 57.292 91.5939 56.9043 91.9628 56.4255C92.3316 55.9468 92.5857 55.3897 92.7053 54.7973C92.825 54.2048 92.807 53.5928 92.6528 53.0084L89.3626 40.6195C89.1405 39.7779 88.6465 39.0333 87.9575 38.5014C87.2684 37.9696 86.4229 37.6803 85.5525 37.6787H54.3244C53.4529 37.6799 52.6062 37.9689 51.9158 38.5006C51.2254 39.0324 50.7299 39.7773 50.5062 40.6195L47.2566 52.9922C47.0985 53.5751 47.0764 54.1866 47.1922 54.7793C47.308 55.3721 47.5586 55.9303 47.9245 56.4109C48.2903 56.8914 48.7618 57.2814 49.3024 57.5507C49.8431 57.82 50.4384 57.9614 51.0424 57.964Z" fill="#F5F5F5"/>
<path d="M333.306 97.1859C337.811 97.1859 342.132 95.3962 345.317 92.2105C348.503 89.0248 350.293 84.7041 350.293 80.1989C350.293 75.6937 348.503 71.373 345.317 68.1873C342.132 65.0016 337.811 63.2119 333.306 63.2119H331.218V97.1859H333.306Z" fill="#E0E0E0"/>
<path d="M331.218 97.1859C340.6 97.1859 348.205 89.5806 348.205 80.1989C348.205 70.8173 340.6 63.2119 331.218 63.2119C321.837 63.2119 314.231 70.8173 314.231 80.1989C314.231 89.5806 321.837 97.1859 331.218 97.1859Z" fill="#F5F5F5"/>
<path d="M330.438 82.3265C324.405 82.3265 318.62 79.93 314.354 75.6641C310.088 71.3983 307.691 65.6125 307.691 59.5797V46.0047C307.691 45.4381 307.916 44.8946 308.317 44.494C308.718 44.0933 309.261 43.8682 309.828 43.8682C310.395 43.8682 310.938 44.0933 311.339 44.494C311.739 44.8946 311.965 45.4381 311.965 46.0047V59.5878C311.969 64.4846 313.915 69.1797 317.377 72.6431C320.839 76.1064 325.533 78.055 330.43 78.0615C330.721 78.0435 331.013 78.0853 331.287 78.1844C331.562 78.2834 331.813 78.4376 332.025 78.6374C332.238 78.8371 332.407 79.0783 332.523 79.346C332.639 79.6138 332.698 79.9023 332.698 80.194C332.698 80.4857 332.639 80.7743 332.523 81.042C332.407 81.3097 332.238 81.5509 332.025 81.7507C331.813 81.9504 331.562 82.1046 331.287 82.2036C331.013 82.3027 330.721 82.3445 330.43 82.3265H330.438Z" fill="#E0E0E0"/>
<path d="M290.94 57.9634H328.733C329.337 57.9635 329.933 57.8248 330.476 57.5581C331.018 57.2914 331.492 56.9037 331.861 56.4249C332.23 55.9461 332.484 55.3891 332.603 54.7966C332.723 54.2042 332.705 53.5922 332.551 53.0078L329.301 40.6352C329.079 39.7935 328.585 39.0489 327.896 38.5171C327.207 37.9852 326.362 37.696 325.491 37.6943H294.222C293.351 37.6956 292.504 37.9845 291.814 38.5163C291.123 39.048 290.628 39.7929 290.404 40.6352L287.155 53.0078C286.999 53.5897 286.98 54.1993 287.097 54.79C287.214 55.3807 287.465 55.9367 287.831 56.4152C288.196 56.8938 288.667 57.2821 289.206 57.5505C289.745 57.8189 290.338 57.9601 290.94 57.9634Z" fill="#F5F5F5"/>
<path d="M108.844 211.919H121.2V164.045H108.844V211.919Z" fill="#E6E6E6"/>
<path d="M75.3486 211.91H116.35L122.54 155.88H81.539L75.3486 211.91Z" fill="#F0F0F0"/>
<path d="M70.9053 211.91H113.263L119.453 155.88H77.1038L70.9053 211.91Z" fill="#F5F5F5"/>
<path d="M110.2 207.499L115.415 160.3H80.1579L74.9424 207.499H110.2Z" fill="white"/>
<path d="M102.921 196.053L103.173 194.16C104.481 182.316 97.0883 171.763 87.4859 171.763L87.2666 173.688C85.9586 185.525 93.3513 196.077 102.962 196.077L102.921 196.053Z" fill="#F5F5F5"/>
<path d="M48.0043 265.975H84.4316V211.91H48.0043L48.0043 265.975Z" fill="#E6E6E6"/>
<path d="M51.66 265.975H47.9961V255.552H55.5025L51.66 265.975Z" fill="#F0F0F0"/>
<path d="M150.097 265.975H186.524V211.91H150.097V265.975Z" fill="#E6E6E6"/>
<path d="M47.9957 259.581H153.289V211.918H47.9957V259.581Z" fill="#F0F0F0"/>
<path d="M149.626 265.975H153.29V255.552H145.783L149.626 265.975Z" fill="#F0F0F0"/>
<path d="M50.8396 234.13H150.446V214.893H50.8396V234.13Z" fill="#E6E6E6"/>
<path d="M94.0017 227.467H107.284C110.14 227.469 112.966 226.887 115.589 225.758C118.213 224.63 120.578 222.978 122.541 220.903H78.7451C80.7088 222.977 83.0744 224.628 85.6975 225.756C88.3206 226.885 91.1462 227.467 94.0017 227.467Z" fill="#F0F0F0"/>
<path d="M50.8396 256.47H150.446V237.232H50.8396V256.47Z" fill="#E6E6E6"/>
<path d="M94.0017 249.776H107.284C110.14 249.777 112.966 249.196 115.589 248.067C118.213 246.938 120.578 245.286 122.541 243.212H78.7451C80.7088 245.285 83.0744 246.936 85.6975 248.065C88.3206 249.194 91.1462 249.776 94.0017 249.776Z" fill="#F0F0F0"/>
<path d="M146.619 209.709H147.562C147.562 207.767 147.562 202.852 147.659 191.585C147.83 171.153 148.155 169.91 148.155 169.91L145.913 179.342C144.491 189.781 146.327 200.277 146.619 209.709Z" fill="#E6E6E6"/>
<path d="M144.759 177.912C141.509 174.069 134.645 172.948 127.593 171.989C124.823 171.616 134.864 177.944 139.779 182.437C143.597 185.93 146.034 186.897 147.09 190.374C147.627 186.036 147.537 181.251 144.759 177.912Z" fill="#E6E6E6"/>
<path d="M149.04 184.801C152.29 180.958 159.154 179.846 166.206 178.887C168.976 178.513 158.894 184.842 154.02 189.334C150.202 192.827 147.765 193.794 146.709 197.271C146.172 192.933 146.229 188.116 149.04 184.801Z" fill="#E6E6E6"/>
<path d="M147.659 168.976C150.096 164.378 156.157 160.04 162.989 158.415C165.67 157.773 156.774 166.896 153.394 172.786C150.77 177.352 147.293 182.73 146.749 186.597C145.937 178.976 145.238 173.598 147.659 168.976Z" fill="#E6E6E6"/>
<path d="M147.367 211.911C144.491 211.911 142.111 210.473 141.94 208.621L141.461 205.469H153.281L152.794 208.621C152.631 210.473 150.292 211.911 147.367 211.911Z" fill="#F0F0F0"/>
<path d="M154.045 206.679H140.697L140.315 203.161H154.427L154.045 206.679Z" fill="#F0F0F0"/>
<path d="M137.732 139.503L267.885 139.503V20.789L137.732 20.789L137.732 139.503Z" fill="#E6E6E6"/>
<path d="M134.808 139.503L266.609 139.503V20.789L134.808 20.789L134.808 139.503Z" fill="#F5F5F5"/>
<path d="M261.345 134.19V26.1104L140.056 26.1104V134.19H261.345Z" fill="#FAFAFA"/>
<path d="M246.47 134.19L198.734 26.1104H182.519L230.254 134.19H246.47Z" fill="white"/>
<path d="M225.657 134.19L177.921 26.1104H166.759L214.495 134.19H225.657Z" fill="white"/>
<path d="M185.094 134.181V26.1016H178.822V134.181H185.094Z" fill="#E6E6E6"/>
<path d="M226.786 134.181V26.1016H220.515V134.181H226.786Z" fill="#E6E6E6"/>
<path d="M183.965 137.561V22.1533H176.036V137.561H183.965Z" fill="#F5F5F5"/>
<path d="M225.656 137.561V22.1533H217.727V137.561H225.656Z" fill="#F5F5F5"/>
<path d="M140.624 134.19V26.1104H140.063V134.19H140.624Z" fill="#E6E6E6"/>
<path d="M132.597 13.9482H273.595C273.775 13.9504 273.948 14.0229 274.075 14.1504C274.203 14.278 274.275 14.4503 274.278 14.6306C274.275 14.8102 274.203 14.9817 274.075 15.1079C273.947 15.2342 273.775 15.3049 273.595 15.3049H132.597C132.418 15.3049 132.245 15.2342 132.118 15.1079C131.99 14.9817 131.917 14.8102 131.915 14.6306C131.917 14.4503 131.99 14.278 132.117 14.1504C132.245 14.0229 132.417 13.9504 132.597 13.9482Z" fill="#E6E6E6"/>
<path d="M267.885 18.425C268.127 18.4229 268.358 18.3252 268.529 18.1533C268.699 17.9814 268.795 17.7491 268.795 17.507V15.541C268.796 15.4209 268.773 15.3017 268.728 15.1904C268.683 15.079 268.616 14.9778 268.531 14.8924C268.446 14.8071 268.346 14.7393 268.235 14.6931C268.124 14.6468 268.005 14.623 267.885 14.623C267.643 14.623 267.41 14.7186 267.239 14.889C267.067 15.0594 266.969 15.2909 266.967 15.5329V17.4989C266.967 17.7431 267.063 17.9775 267.235 18.1509C267.407 18.3244 267.641 18.4229 267.885 18.425Z" fill="#E6E6E6"/>
<path d="M142.817 18.425C143.06 18.4229 143.292 18.3255 143.464 18.1538C143.636 17.9821 143.733 17.7498 143.735 17.507V15.541C143.735 15.2976 143.638 15.0641 143.466 14.8919C143.294 14.7198 143.061 14.623 142.817 14.623C142.576 14.623 142.344 14.7189 142.174 14.8895C142.003 15.0602 141.907 15.2916 141.907 15.5329V17.4989C141.906 17.6194 141.929 17.739 141.974 17.8508C142.019 17.9626 142.086 18.0644 142.17 18.1504C142.255 18.2364 142.355 18.3049 142.466 18.352C142.577 18.3992 142.697 18.424 142.817 18.425Z" fill="#E6E6E6"/>
<path opacity="0.6" d="M132.809 107.592L264.521 107.592V14.6224L132.809 14.6224V107.592Z" fill="#E0E0E0"/>
<path d="M276.447 166.515H253.733C251.319 166.515 249.362 168.471 249.362 170.885V181.398C249.362 183.811 251.319 185.768 253.733 185.768H276.447C278.861 185.768 280.818 183.811 280.818 181.398V170.885C280.818 168.471 278.861 166.515 276.447 166.515Z" fill="#FAFAFA"/>
<path d="M279.347 162.956H250.833C250.021 162.956 249.362 163.614 249.362 164.426V165.613C249.362 166.425 250.021 167.083 250.833 167.083H279.347C280.16 167.083 280.818 166.425 280.818 165.613V164.426C280.818 163.614 280.16 162.956 279.347 162.956Z" fill="#E6E6E6"/>
<path d="M249.825 207.158C249.825 207.158 250.24 220.701 266.016 220.701C281.793 220.701 282.207 207.158 282.207 207.158H249.825Z" fill="#F0F0F0"/>
<path d="M285.798 207.158C285.798 207.158 286.212 220.701 301.989 220.701C317.765 220.701 318.18 207.158 318.18 207.158H285.798Z" fill="#F0F0F0"/>
<path d="M310.365 157.798H279.169C275.849 157.798 273.157 160.489 273.157 163.81V179.765C273.157 183.085 275.849 185.776 279.169 185.776H310.365C313.685 185.776 316.376 183.085 316.376 179.765V163.81C316.376 160.489 313.685 157.798 310.365 157.798Z" fill="#F0F0F0"/>
<path d="M314.361 152.907H275.172C274.059 152.907 273.157 153.809 273.157 154.922V156.563C273.157 157.676 274.059 158.578 275.172 158.578H314.361C315.474 158.578 316.376 157.676 316.376 156.563V154.922C316.376 153.809 315.474 152.907 314.361 152.907Z" fill="#F5F5F5"/>
<path d="M237.94 265.975H242.034V198.839H237.94V265.975Z" fill="#E6E6E6"/>
<path d="M356.166 185.769H333.996V198.832H356.166V185.769Z" fill="#E6E6E6"/>
<path d="M223.764 198.839H333.988V185.776H223.764V198.839Z" fill="#F5F5F5"/>
<path d="M356.166 220.66H333.996V233.723H356.166V220.66Z" fill="#E6E6E6"/>
<path d="M223.764 233.724H333.988V220.66H223.764V233.724Z" fill="#F5F5F5"/>
<path d="M348.164 265.975H352.259V198.839H348.164V265.975Z" fill="#E6E6E6"/>
<path d="M329.902 265.975H333.996V198.839H329.902V265.975Z" fill="#F5F5F5"/>
<path d="M223.764 265.975H227.858V198.839H223.764V265.975Z" fill="#F5F5F5"/>
<path d="M203.097 302.663C290.089 302.663 360.61 298.546 360.61 293.467C360.61 288.388 290.089 284.271 203.097 284.271C116.104 284.271 45.583 288.388 45.583 293.467C45.583 298.546 116.104 302.663 203.097 302.663Z" fill="#F5F5F5"/>
<path d="M211.553 252.245H107.917C106.251 252.221 104.655 251.569 103.449 250.418C102.244 249.266 101.518 247.702 101.418 246.038L92.1243 66.0544C92.0728 65.2538 92.1872 64.4512 92.4604 63.6969C92.7335 62.9426 93.1596 62.2529 93.7118 61.6709C94.264 61.089 94.9304 60.6274 95.6694 60.315C96.4083 60.0027 97.2038 59.8464 98.006 59.8559H201.642C203.308 59.8775 204.904 60.5286 206.109 61.6783C207.315 62.8281 208.041 64.3915 208.141 66.0544L217.419 246.038C217.47 246.838 217.356 247.64 217.084 248.393C216.812 249.147 216.387 249.836 215.837 250.419C215.287 251.001 214.622 251.464 213.885 251.778C213.148 252.092 212.354 252.251 211.553 252.245Z" fill="url(#paint0_linear_329_1282)"/>
<path opacity="0.8" d="M211.553 252.245H107.917C106.251 252.221 104.655 251.569 103.449 250.418C102.244 249.266 101.518 247.702 101.418 246.038L92.1243 66.0544C92.0728 65.2538 92.1872 64.4512 92.4604 63.6969C92.7335 62.9426 93.1596 62.2529 93.7118 61.6709C94.264 61.089 94.9304 60.6274 95.6694 60.315C96.4083 60.0027 97.2038 59.8464 98.006 59.8559H201.642C203.308 59.8775 204.904 60.5286 206.109 61.6783C207.315 62.8281 208.041 64.3915 208.141 66.0544L217.419 246.038C217.47 246.838 217.356 247.64 217.084 248.393C216.812 249.147 216.387 249.836 215.837 250.419C215.287 251.001 214.622 251.464 213.885 251.778C213.148 252.092 212.354 252.251 211.553 252.245Z" fill="white"/>
<path d="M191.414 53.9902H179.951V54.8026H191.414V53.9902Z" fill="url(#paint1_linear_329_1282)"/>
<path d="M175.978 53.9902H171.778V54.8026H175.978V53.9902Z" fill="url(#paint2_linear_329_1282)"/>
<path d="M216.013 240.823H116.902C115.306 240.807 113.775 240.188 112.618 239.089C111.46 237.99 110.762 236.494 110.663 234.901L101.792 62.756C101.742 61.9899 101.852 61.2218 102.114 60.4999C102.375 59.7781 102.783 59.1181 103.311 58.5612C103.84 58.0044 104.478 57.5628 105.185 57.2642C105.893 56.9655 106.654 56.8162 107.422 56.8256H206.533C208.129 56.8432 209.659 57.4648 210.815 58.5651C211.971 59.6655 212.667 61.1629 212.764 62.756L221.635 234.901C221.684 235.666 221.575 236.433 221.314 237.154C221.053 237.874 220.646 238.534 220.118 239.09C219.59 239.646 218.953 240.087 218.246 240.385C217.54 240.683 216.78 240.832 216.013 240.823Z" fill="url(#paint3_linear_329_1282)"/>
<path d="M216.013 236.867H116.902C116.321 236.847 115.767 236.614 115.346 236.212C114.925 235.811 114.666 235.269 114.619 234.689L105.74 62.553C105.72 62.324 105.748 62.0934 105.824 61.8763C105.899 61.6592 106.02 61.4607 106.178 61.2938C106.337 61.1272 106.529 60.9962 106.742 60.9094C106.955 60.8226 107.183 60.7819 107.413 60.7901H206.524C207.104 60.812 207.656 61.0457 208.075 61.4469C208.494 61.8481 208.752 62.389 208.799 62.9673L217.719 235.104C217.738 235.332 217.71 235.562 217.634 235.778C217.559 235.994 217.438 236.192 217.281 236.358C217.124 236.525 216.933 236.656 216.722 236.744C216.51 236.831 216.282 236.873 216.054 236.867H216.013ZM107.413 60.9932C107.211 60.9867 107.01 61.0223 106.823 61.0978C106.635 61.1734 106.466 61.2871 106.325 61.4319C106.189 61.5819 106.085 61.7579 106.02 61.9492C105.954 62.1405 105.928 62.3432 105.943 62.5448L114.814 234.681C114.859 235.209 115.096 235.701 115.479 236.066C115.862 236.431 116.365 236.644 116.894 236.664H216.005C216.206 236.671 216.406 236.636 216.592 236.561C216.779 236.485 216.947 236.371 217.085 236.225C217.224 236.077 217.33 235.901 217.396 235.709C217.462 235.518 217.486 235.314 217.467 235.112L208.604 62.9754C208.561 62.4489 208.326 61.9565 207.944 61.5912C207.563 61.226 207.06 61.0133 206.532 60.9932H107.413Z" fill="white"/>
<path opacity="0.3" d="M181.346 123.528C192.618 111.96 191.884 92.9616 179.706 81.0939C167.528 69.2261 148.517 68.983 137.244 80.5508C125.971 92.1186 126.705 111.117 138.884 122.985C151.062 134.852 170.073 135.095 181.346 123.528Z" fill="white"/>
<path d="M183.599 102.043C183.826 106.035 183.023 110.019 181.267 113.611C179.366 117.465 176.415 120.703 172.755 122.952C169.094 125.201 164.872 126.371 160.576 126.325C156.123 126.285 151.757 125.093 147.902 122.865C144.047 120.637 140.834 117.449 138.576 113.611C136.472 110.102 135.261 106.13 135.05 102.043C134.85 98.9091 135.299 95.7675 136.368 92.8149C137.438 89.8623 139.106 87.1622 141.267 84.8837C143.428 82.6052 146.036 80.7972 148.928 79.573C151.82 78.3488 154.933 77.7346 158.073 77.7689C164.609 77.8371 170.876 80.3792 175.612 84.8833C180.349 89.3875 183.202 95.519 183.599 102.043Z" fill="white"/>
<path d="M181.243 113.611C179.342 117.464 176.391 120.702 172.73 122.951C169.069 125.201 164.848 126.37 160.551 126.325C156.099 126.285 151.732 125.092 147.877 122.865C144.022 120.637 140.809 117.449 138.552 113.611C144.725 109.347 152.057 107.079 159.56 107.112C167.263 107.141 174.794 109.398 181.243 113.611Z" fill="url(#paint4_linear_329_1282)"/>
<path d="M166.821 101.479C170.882 97.3112 170.617 90.4652 166.227 86.1878C161.838 81.9104 154.987 81.8214 150.926 85.989C146.865 90.1566 147.131 97.0027 151.52 101.28C155.909 105.557 162.76 105.646 166.821 101.479Z" fill="url(#paint5_linear_329_1282)"/>
<path d="M201.805 173.85H124.198C123.522 173.843 122.873 173.58 122.383 173.114C121.894 172.648 121.598 172.014 121.557 171.34L120.972 159.966C120.952 159.643 120.999 159.318 121.11 159.014C121.221 158.709 121.393 158.431 121.617 158.196C121.84 157.961 122.11 157.775 122.408 157.649C122.707 157.523 123.028 157.46 123.353 157.464H200.96C201.634 157.471 202.282 157.733 202.771 158.197C203.261 158.661 203.557 159.293 203.6 159.966L204.185 171.34C204.206 171.664 204.16 171.989 204.05 172.294C203.94 172.6 203.767 172.879 203.544 173.115C203.32 173.351 203.05 173.538 202.751 173.664C202.452 173.791 202.13 173.854 201.805 173.85Z" fill="white"/>
<path opacity="0.3" d="M178.042 151.184H145.628C144.949 151.179 144.298 150.916 143.806 150.448C143.314 149.98 143.019 149.343 142.979 148.665L142.858 146.228C142.836 145.904 142.882 145.579 142.993 145.273C143.103 144.968 143.275 144.688 143.499 144.453C143.722 144.217 143.992 144.03 144.292 143.904C144.591 143.777 144.913 143.714 145.238 143.718H177.644C178.32 143.725 178.968 143.988 179.458 144.454C179.948 144.919 180.243 145.553 180.284 146.228L180.414 148.665C180.434 148.989 180.388 149.313 180.277 149.618C180.167 149.923 179.996 150.202 179.773 150.438C179.551 150.674 179.283 150.862 178.985 150.99C178.687 151.119 178.366 151.184 178.042 151.184Z" fill="black"/>
<path opacity="0.3" d="M190.098 228.532H141.542C140.392 228.517 139.29 228.069 138.457 227.277C137.624 226.484 137.121 225.406 137.05 224.258L136.765 218.653C136.737 218.102 136.82 217.551 137.012 217.034C137.203 216.516 137.498 216.043 137.878 215.643C138.258 215.243 138.715 214.925 139.222 214.708C139.729 214.491 140.276 214.379 140.827 214.38H189.367C190.517 214.394 191.619 214.842 192.452 215.635C193.285 216.427 193.788 217.505 193.86 218.653L194.144 224.258C194.173 224.808 194.089 225.358 193.899 225.874C193.709 226.39 193.416 226.863 193.037 227.262C192.659 227.662 192.203 227.981 191.698 228.199C191.193 228.417 190.649 228.53 190.098 228.532Z" fill="black"/>
<path d="M203.226 201.357H125.611C124.935 201.348 124.288 201.085 123.799 200.619C123.309 200.154 123.013 199.521 122.97 198.847L122.385 187.473C122.365 187.149 122.412 186.825 122.523 186.52C122.634 186.215 122.806 185.936 123.029 185.7C123.253 185.465 123.522 185.278 123.821 185.151C124.12 185.024 124.441 184.96 124.766 184.963H202.373C203.049 184.97 203.697 185.233 204.187 185.699C204.677 186.164 204.972 186.799 205.013 187.473L205.606 198.847C205.625 199.17 205.577 199.494 205.466 199.799C205.355 200.103 205.182 200.382 204.959 200.617C204.736 200.852 204.467 201.039 204.169 201.167C203.871 201.294 203.55 201.359 203.226 201.357Z" fill="white"/>
<path d="M134.044 165.653C134.066 166.012 134.014 166.371 133.891 166.709C133.768 167.047 133.577 167.356 133.329 167.617C133.081 167.878 132.783 168.085 132.451 168.225C132.12 168.365 131.763 168.435 131.404 168.431C130.656 168.422 129.94 168.131 129.399 167.615C128.858 167.1 128.532 166.398 128.487 165.653C128.464 165.294 128.514 164.934 128.636 164.596C128.758 164.258 128.949 163.949 129.196 163.688C129.443 163.427 129.742 163.22 130.073 163.08C130.404 162.94 130.76 162.87 131.119 162.874C131.867 162.883 132.584 163.174 133.127 163.689C133.669 164.205 133.997 164.906 134.044 165.653Z" fill="#263238"/>
<path d="M142.598 165.653C142.622 166.011 142.571 166.371 142.449 166.709C142.327 167.047 142.136 167.356 141.889 167.617C141.642 167.878 141.344 168.085 141.013 168.225C140.682 168.365 140.325 168.435 139.966 168.431C139.218 168.424 138.501 168.133 137.96 167.617C137.418 167.101 137.093 166.399 137.05 165.653C137.026 165.294 137.077 164.934 137.199 164.596C137.321 164.258 137.511 163.949 137.759 163.688C138.006 163.427 138.304 163.22 138.635 163.08C138.966 162.94 139.322 162.87 139.682 162.874C140.429 162.881 141.147 163.172 141.688 163.688C142.23 164.204 142.555 164.906 142.598 165.653Z" fill="#263238"/>
<path d="M151.104 165.653C151.127 166.011 151.076 166.371 150.954 166.709C150.832 167.047 150.642 167.356 150.395 167.617C150.148 167.878 149.849 168.085 149.518 168.225C149.187 168.365 148.831 168.435 148.472 168.431C147.724 168.422 147.006 168.131 146.464 167.616C145.922 167.1 145.594 166.399 145.547 165.653C145.525 165.294 145.577 164.934 145.7 164.596C145.823 164.258 146.014 163.949 146.262 163.688C146.509 163.427 146.808 163.22 147.14 163.08C147.471 162.94 147.828 162.87 148.187 162.874C148.935 162.883 149.651 163.175 150.192 163.69C150.733 164.205 151.059 164.907 151.104 165.653Z" fill="#263238"/>
<path d="M159.674 165.652C159.696 166.011 159.645 166.37 159.522 166.707C159.4 167.045 159.209 167.353 158.962 167.614C158.715 167.875 158.417 168.082 158.087 168.222C157.757 168.363 157.401 168.434 157.042 168.431C156.294 168.422 155.577 168.131 155.034 167.616C154.492 167.1 154.164 166.399 154.117 165.652C154.095 165.294 154.147 164.935 154.269 164.598C154.392 164.26 154.582 163.951 154.829 163.691C155.076 163.43 155.374 163.223 155.704 163.083C156.035 162.942 156.39 162.871 156.749 162.874C157.498 162.883 158.215 163.174 158.757 163.689C159.299 164.205 159.627 164.906 159.674 165.652Z" fill="#263238"/>
<path d="M135.482 193.144C135.505 193.502 135.454 193.862 135.332 194.2C135.21 194.538 135.02 194.847 134.773 195.108C134.526 195.369 134.227 195.576 133.896 195.716C133.565 195.856 133.209 195.926 132.85 195.922C132.102 195.913 131.384 195.622 130.842 195.107C130.3 194.592 129.972 193.89 129.925 193.144C129.903 192.785 129.955 192.425 130.077 192.087C130.2 191.749 130.392 191.44 130.64 191.179C130.887 190.918 131.186 190.712 131.518 190.572C131.849 190.432 132.206 190.361 132.565 190.365C133.312 190.374 134.029 190.666 134.57 191.181C135.111 191.697 135.437 192.398 135.482 193.144Z" fill="#263238"/>
<path d="M144.019 193.144C144.042 193.502 143.99 193.861 143.868 194.199C143.745 194.536 143.554 194.845 143.308 195.105C143.061 195.366 142.763 195.573 142.432 195.714C142.102 195.854 141.746 195.925 141.387 195.922C140.639 195.913 139.922 195.622 139.38 195.107C138.837 194.592 138.51 193.89 138.463 193.144C138.439 192.785 138.49 192.426 138.612 192.088C138.734 191.75 138.925 191.44 139.172 191.18C139.419 190.919 139.717 190.712 140.048 190.572C140.379 190.431 140.735 190.361 141.095 190.365C141.843 190.374 142.56 190.665 143.102 191.181C143.645 191.696 143.972 192.397 144.019 193.144Z" fill="#263238"/>
<path d="M152.557 193.144C152.58 193.503 152.528 193.863 152.405 194.201C152.282 194.539 152.091 194.848 151.843 195.108C151.595 195.369 151.296 195.576 150.965 195.716C150.634 195.856 150.277 195.926 149.917 195.922C149.169 195.915 148.452 195.624 147.911 195.108C147.369 194.593 147.044 193.89 147.001 193.144C146.977 192.785 147.028 192.426 147.15 192.088C147.272 191.75 147.463 191.44 147.71 191.18C147.957 190.919 148.255 190.712 148.586 190.572C148.917 190.431 149.274 190.361 149.633 190.365C150.381 190.374 151.098 190.665 151.64 191.181C152.183 191.696 152.51 192.397 152.557 193.144Z" fill="#263238"/>
<path d="M161.088 193.144C161.112 193.502 161.061 193.862 160.939 194.2C160.817 194.538 160.626 194.847 160.379 195.108C160.132 195.369 159.834 195.576 159.503 195.716C159.172 195.856 158.815 195.926 158.456 195.922C157.708 195.913 156.991 195.622 156.448 195.107C155.906 194.592 155.579 193.89 155.531 193.144C155.509 192.785 155.561 192.425 155.684 192.087C155.807 191.749 155.998 191.44 156.246 191.179C156.494 190.918 156.793 190.712 157.124 190.572C157.455 190.432 157.812 190.361 158.172 190.365C158.919 190.372 159.637 190.663 160.178 191.179C160.72 191.695 161.045 192.397 161.088 193.144Z" fill="#263238"/>
<path d="M169.626 193.144C169.65 193.502 169.599 193.862 169.477 194.2C169.355 194.538 169.164 194.847 168.917 195.108C168.67 195.369 168.372 195.576 168.041 195.716C167.71 195.856 167.353 195.926 166.994 195.922C166.246 195.913 165.529 195.622 164.987 195.107C164.444 194.592 164.117 193.89 164.07 193.144C164.047 192.785 164.099 192.426 164.221 192.089C164.344 191.751 164.534 191.443 164.781 191.182C165.028 190.921 165.326 190.714 165.657 190.574C165.987 190.433 166.343 190.362 166.702 190.365C167.45 190.374 168.167 190.665 168.709 191.181C169.252 191.696 169.579 192.397 169.626 193.144Z" fill="#263238"/>
<path d="M178.164 193.144C178.186 193.503 178.134 193.863 178.011 194.201C177.888 194.539 177.697 194.848 177.449 195.108C177.202 195.369 176.903 195.576 176.571 195.716C176.24 195.856 175.883 195.926 175.524 195.922C174.776 195.913 174.06 195.622 173.519 195.106C172.978 194.591 172.652 193.89 172.607 193.144C172.584 192.785 172.634 192.426 172.756 192.088C172.878 191.75 173.069 191.44 173.316 191.18C173.563 190.919 173.862 190.712 174.193 190.572C174.524 190.431 174.88 190.361 175.239 190.365C175.987 190.374 176.704 190.665 177.247 191.181C177.789 191.696 178.117 192.397 178.164 193.144Z" fill="#263238"/>
<path d="M270.526 98.8018C270.729 99.1105 270.834 99.2729 270.964 99.4923L271.33 100.093C271.565 100.5 271.777 100.906 271.98 101.304C272.386 102.116 272.792 102.929 273.117 103.741C273.798 105.355 274.384 107.007 274.872 108.688C275.855 112.011 276.503 115.424 276.805 118.876L276.862 119.518C276.869 119.647 276.869 119.778 276.862 119.908V120.338C276.876 120.903 276.843 121.468 276.765 122.028C276.609 123.065 276.336 124.082 275.952 125.058C275.239 126.802 274.293 128.441 273.141 129.932C270.993 132.683 268.443 135.096 265.578 137.09L263.336 134.466C265.376 132.161 267.183 129.66 268.73 127C269.426 125.793 269.972 124.505 270.355 123.165C270.51 122.598 270.6 122.015 270.623 121.427C270.648 121.175 270.648 120.922 270.623 120.671V120.501C270.631 120.425 270.631 120.349 270.623 120.273L270.526 119.704C270.003 116.677 269.265 113.69 268.316 110.768C267.845 109.314 267.268 107.909 266.691 106.536C266.407 105.845 266.082 105.171 265.757 104.521L265.253 103.562L265.001 103.116L264.79 102.758L270.526 98.8018Z" fill="#803E3C"/>
<path d="M262.97 137.105L265.911 143.32L268.242 138.064C268.242 138.064 266.171 133.514 263.368 133.937L262.97 137.105Z" fill="#7F3E3B"/>
<path d="M268.015 143.629L270.355 139.795L268.243 138.064L265.911 143.321L268.015 143.629Z" fill="#7F3E3B"/>
<path d="M254.789 286.95C255.397 286.934 256.002 286.853 256.593 286.706C256.623 286.697 256.65 286.68 256.671 286.657C256.692 286.634 256.707 286.606 256.715 286.576C256.72 286.545 256.715 286.513 256.702 286.484C256.689 286.455 256.668 286.431 256.641 286.414C256.406 286.259 254.342 284.927 253.546 285.284C253.458 285.325 253.382 285.389 253.327 285.469C253.271 285.549 253.237 285.642 253.229 285.739C253.205 285.886 253.216 286.037 253.263 286.179C253.31 286.32 253.39 286.448 253.498 286.552C253.866 286.836 254.325 286.977 254.789 286.95ZM256.13 286.47C254.952 286.714 254.058 286.673 253.692 286.357C253.618 286.283 253.563 286.191 253.533 286.09C253.503 285.989 253.5 285.883 253.522 285.78C253.522 285.642 253.603 285.601 253.66 285.577C254.099 285.382 255.293 285.959 256.13 286.47Z" fill="url(#paint6_linear_329_1282)"/>
<path d="M256.552 286.707H256.634C256.658 286.691 256.678 286.669 256.692 286.643C256.707 286.618 256.714 286.589 256.715 286.56C256.715 286.479 256.715 284.521 255.967 283.863C255.876 283.781 255.767 283.719 255.649 283.683C255.532 283.646 255.407 283.636 255.285 283.652C255.157 283.653 255.033 283.698 254.934 283.779C254.835 283.86 254.767 283.973 254.741 284.099C254.586 284.871 255.821 286.333 256.471 286.707H256.552ZM255.391 283.953C255.456 283.951 255.522 283.962 255.583 283.986C255.645 284.009 255.701 284.045 255.748 284.091C256.177 284.722 256.398 285.472 256.382 286.235C255.732 285.715 254.96 284.611 255.058 284.147C255.058 284.074 255.114 283.977 255.318 283.953H255.391Z" fill="url(#paint7_linear_329_1282)"/>
<path d="M247.121 283.636C247.14 283.612 247.152 283.583 247.157 283.553C247.161 283.523 247.157 283.492 247.145 283.464C247.134 283.436 247.115 283.411 247.09 283.393C247.066 283.374 247.037 283.363 247.007 283.359C246.674 283.359 243.757 283.221 243.091 283.936V283.985C243.036 284.055 243.001 284.139 242.988 284.227C242.975 284.315 242.985 284.406 243.018 284.489C243.062 284.628 243.138 284.755 243.242 284.858C243.345 284.962 243.472 285.038 243.611 285.082C244.554 285.374 246.219 284.31 247.129 283.652L247.121 283.636ZM243.335 284.147C243.701 283.757 245.309 283.652 246.511 283.668C245.252 284.529 244.204 284.935 243.676 284.773C243.584 284.745 243.5 284.695 243.432 284.627C243.364 284.559 243.314 284.475 243.286 284.383C243.27 284.352 243.261 284.317 243.261 284.281C243.261 284.246 243.27 284.211 243.286 284.18L243.335 284.147Z" fill="url(#paint8_linear_329_1282)"/>
<path d="M247.12 283.635C247.132 283.61 247.139 283.582 247.139 283.554C247.139 283.526 247.132 283.498 247.12 283.473C247.08 283.408 246.17 281.848 245.097 281.523C244.943 281.478 244.782 281.465 244.622 281.484C244.463 281.504 244.31 281.556 244.171 281.637C243.781 281.864 243.757 282.132 243.806 282.303C244.017 283.059 246.088 283.725 246.982 283.717C247.01 283.716 247.038 283.708 247.062 283.694C247.086 283.68 247.106 283.66 247.12 283.635ZM244.204 282.011C244.25 281.966 244.301 281.927 244.358 281.897C244.458 281.833 244.571 281.792 244.689 281.776C244.807 281.761 244.927 281.771 245.04 281.807C245.747 281.994 246.405 282.904 246.706 283.351C245.739 283.245 244.269 282.652 244.147 282.197C244.136 282.163 244.136 282.126 244.146 282.092C244.157 282.057 244.176 282.026 244.204 282.002V282.011Z" fill="url(#paint9_linear_329_1282)"/>
<path d="M256.065 75.0068C255.252 79.0688 253.497 87.8507 256.316 90.5478C256.316 90.5478 255.212 94.6097 247.713 94.6097C239.459 94.6097 243.773 90.5478 243.773 90.5478C248.274 89.4754 248.16 86.1284 247.372 82.9926L256.065 75.0068Z" fill="#7F3E3B"/>
<path d="M242.319 65.4849C242.365 65.4923 242.411 65.4923 242.457 65.4849C242.496 65.4659 242.53 65.4395 242.558 65.407C242.587 65.3746 242.608 65.3369 242.622 65.2961C242.635 65.2553 242.641 65.2122 242.638 65.1693C242.634 65.1264 242.623 65.0846 242.603 65.0462C242.385 64.5828 242.058 64.1786 241.651 63.8676C241.244 63.5566 240.768 63.3479 240.264 63.259C240.179 63.2519 240.095 63.2774 240.028 63.3302C239.962 63.3831 239.918 63.4593 239.906 63.5433C239.897 63.6283 239.922 63.7135 239.975 63.7804C240.028 63.8473 240.106 63.8906 240.191 63.9008C240.589 63.9772 240.963 64.1476 241.282 64.3976C241.602 64.6477 241.857 64.9703 242.027 65.3387C242.058 65.3867 242.102 65.4256 242.153 65.4513C242.204 65.4769 242.262 65.4886 242.319 65.4849Z" fill="#263238"/>
<path d="M239.858 69.0518C239.218 70.2376 238.42 71.3309 237.485 72.3013C237.738 72.5328 238.039 72.7065 238.366 72.8103C238.692 72.9141 239.038 72.9456 239.378 72.9025L239.858 69.0518Z" fill="#630F0F"/>
<path d="M240.467 68.1334C240.402 68.6777 240.053 69.0839 239.704 69.0433C239.354 69.0027 239.111 68.5234 239.176 67.9791C239.241 67.4348 239.59 67.0286 239.988 67.0692C240.386 67.1098 240.524 67.5891 240.467 68.1334Z" fill="#263238"/>
<path d="M240.093 67.1189L238.842 66.6152C238.842 66.6152 239.37 67.6876 240.093 67.1189Z" fill="#263238"/>
<path d="M254.293 282.092L247.664 283.635L243.635 268.395L250.264 266.852L254.293 282.092Z" fill="#7F3E3B"/>
<path d="M264.465 286.544H257.665L258.193 270.792H265.001L264.465 286.544Z" fill="#7F3E3B"/>
<path d="M257.121 285.756H264.766C264.898 285.755 265.027 285.802 265.127 285.889C265.227 285.975 265.292 286.096 265.31 286.227L266.179 292.271C266.197 292.424 266.181 292.579 266.134 292.725C266.087 292.872 266.01 293.007 265.907 293.121C265.804 293.235 265.678 293.327 265.538 293.389C265.397 293.451 265.245 293.483 265.091 293.482C262.426 293.441 261.143 293.279 257.779 293.279C255.708 293.279 252.686 293.498 249.834 293.498C246.983 293.498 246.82 290.671 248.014 290.419C253.344 289.265 254.189 287.689 255.984 286.178C256.301 285.907 256.704 285.758 257.121 285.756Z" fill="#263238"/>
<path d="M247.08 282.62L254.026 279.427C254.144 279.371 254.278 279.36 254.404 279.396C254.529 279.432 254.638 279.512 254.708 279.622L258.031 284.756C258.108 284.889 258.157 285.036 258.175 285.188C258.192 285.34 258.177 285.494 258.131 285.64C258.085 285.787 258.009 285.922 257.908 286.037C257.807 286.152 257.683 286.244 257.543 286.308C255.106 287.38 253.871 287.779 250.817 289.184C248.94 290.045 245.13 292.027 242.547 293.246C239.963 294.464 238.631 291.938 239.606 291.207C243.968 287.957 245.219 285.626 246.219 283.505C246.388 283.115 246.694 282.8 247.08 282.62Z" fill="#263238"/>
<path opacity="0.2" d="M243.635 268.395L245.796 276.568L252.344 274.707L250.272 266.852L243.635 268.395Z" fill="black"/>
<path opacity="0.2" d="M265.001 270.792H258.193L257.925 278.916H264.733L265.001 270.792Z" fill="black"/>
<path d="M268.088 92.0907C270.915 92.7162 273.937 102.879 273.937 102.879L265.943 111.385C265.943 111.385 259.306 101.831 260.662 98.3217C262.035 94.6578 264.716 91.3596 268.088 92.0907Z" fill="#263238"/>
<path opacity="0.4" d="M263.571 98.5661C262.141 97.2582 261.175 97.6481 260.517 98.688C259.867 101.71 263.717 108.039 265.269 110.435C265.984 107.575 266.804 101.548 263.571 98.5661Z" fill="black"/>
<path d="M232.269 92.2946C232.269 92.2946 229.02 93.4319 235.519 133.361H263.14C262.677 122.117 262.661 115.179 268.014 92.0915C264.144 91.2929 260.221 90.7771 256.275 90.548C252.1 90.247 247.908 90.247 243.732 90.548C238.379 91.0435 232.269 92.2946 232.269 92.2946Z" fill="#263238"/>
<path opacity="0.4" d="M232.018 107.616C232.196 109.557 232.432 111.743 232.741 114.212C235.007 112.173 236.859 106.373 236.177 102.993C234.558 104.307 233.154 105.867 232.018 107.616Z" fill="black"/>
<path d="M234.975 101.548C233.484 105.299 231.806 108.973 229.946 112.556C228.108 116.268 225.932 119.803 223.447 123.117L222.927 123.758L222.667 124.075C222.578 124.181 222.505 124.278 222.367 124.425C221.878 124.958 221.333 125.437 220.742 125.854C219.697 126.578 218.553 127.147 217.346 127.544C215.241 128.217 213.055 128.605 210.847 128.698C206.712 128.862 202.572 128.494 198.531 127.601L198.978 124.189C200.847 124.189 202.804 124.189 204.665 124.035C206.533 123.943 208.394 123.737 210.238 123.417C211.95 123.15 213.624 122.681 215.226 122.02C215.873 121.744 216.477 121.377 217.021 120.931C217.229 120.757 217.417 120.561 217.582 120.346C217.582 120.346 217.679 120.216 217.744 120.127L217.931 119.859L218.313 119.323C220.351 116.174 222.167 112.887 223.748 109.485C225.372 106.032 226.997 102.45 228.484 98.9238L234.975 101.548Z" fill="#803E3C"/>
<path d="M232.27 92.2942C228.882 93.1066 224.723 102.4 224.723 102.4L231.742 112.718C231.742 112.718 241.092 100.946 239.979 97.3553C238.842 93.6102 236.405 91.2868 232.27 92.2942Z" fill="#263238"/>
<path d="M200.928 124.708L195.07 122.003L194.485 127.828C194.485 127.828 199.36 129.266 201.797 127.828L200.928 124.708Z" fill="#7F3E3B"/>
<path d="M191.569 121.418L191.009 125.854L194.486 127.828L195.071 122.003L191.569 121.418Z" fill="#7F3E3B"/>
<path d="M259.005 68.5322C257.762 75.1694 257.381 78.0128 253.579 81.0267C247.892 85.5599 239.971 82.5865 239.207 75.7137C238.509 69.5234 240.654 59.7097 247.534 57.8412C249.05 57.4231 250.648 57.4002 252.175 57.7747C253.702 58.1493 255.108 58.9088 256.258 59.9808C257.408 61.0528 258.265 62.4016 258.745 63.8986C259.226 65.3956 259.316 66.9909 259.005 68.5322Z" fill="#7F3E3B"/>
<path d="M244.423 69.9287C244.041 73.3163 243.895 82.1145 251.337 82.3907C260.444 82.7238 263.173 74.9411 262.361 71.8297C267.105 67.9708 267.787 61.3336 262.458 56.2562C257.129 51.1788 245.398 54.014 242.149 58.9615C238.03 65.095 244.423 69.9287 244.423 69.9287Z" fill="#263238"/>
<path d="M253.546 58.2313C253.108 54.6568 253.449 52.1953 256.796 52.1953C260.143 52.1953 264.708 53.4058 266.382 56.8259C268.055 60.2461 268.194 65.5997 263.522 65.0554C258.851 64.5111 254.074 62.5045 253.546 58.2313Z" fill="url(#paint10_linear_329_1282)"/>
<path d="M258.73 57.3698C257.917 53.1129 261.727 41.122 270.98 40.3096C275.27 39.9441 277.252 44.5584 275.042 45.3221C279.104 45.2733 281.704 50.6432 277.918 51.4475C280.908 53.3647 280.168 57.2966 275.903 59.2301C272.727 60.6924 259.826 63.2677 258.73 57.3698Z" fill="#263238"/>
<path d="M268.616 61.9437C265.635 61.9437 262.523 61.505 260.59 60.2133C260.049 59.8874 259.594 59.4374 259.262 58.9005C258.93 58.3637 258.731 57.7555 258.681 57.1262C258.678 57.0728 258.696 57.0205 258.731 56.9797C258.766 56.939 258.815 56.913 258.868 56.9069C258.895 56.9035 258.922 56.9057 258.948 56.9135C258.974 56.9212 258.998 56.9343 259.019 56.9519C259.039 56.9695 259.056 56.9912 259.068 57.0156C259.08 57.04 259.086 57.0666 259.087 57.0937C259.136 57.6616 259.318 58.2098 259.619 58.694C259.92 59.1782 260.33 59.5846 260.817 59.8802C264.498 62.3174 273.003 61.505 275.652 60.6926C277.943 59.9452 279.494 58.491 279.803 56.8175C279.899 56.2034 279.823 55.5746 279.584 55.001C279.344 54.4274 278.951 53.9313 278.446 53.568C278.427 53.5497 278.411 53.5277 278.401 53.5033C278.39 53.4788 278.385 53.4525 278.385 53.4258C278.385 53.3992 278.39 53.3728 278.401 53.3483C278.411 53.3239 278.427 53.3019 278.446 53.2836C278.484 53.2464 278.535 53.2256 278.588 53.2256C278.642 53.2256 278.693 53.2464 278.731 53.2836C279.298 53.6974 279.738 54.2607 280.004 54.9106C280.269 55.5604 280.349 56.2713 280.233 56.9638C279.9 58.7916 278.251 60.3514 275.814 61.1475C273.462 61.7403 271.041 62.0082 268.616 61.9437Z" fill="#263238"/>
<path d="M242.352 69.0515C241.595 70.1126 241.283 71.4274 241.483 72.7153C241.751 74.4213 243.408 74.5351 244.61 73.4465C245.813 72.3579 246.861 70.3919 245.975 68.9784C245.778 68.673 245.507 68.4231 245.186 68.2524C244.865 68.0818 244.506 67.996 244.143 68.0034C243.78 68.0107 243.425 68.1108 243.111 68.2943C242.797 68.4778 242.536 68.7384 242.352 69.0515Z" fill="#7F3E3B"/>
<path d="M242.814 133.36C242.814 133.36 246.763 180.064 250.865 206.386C254.172 227.646 256.787 277.34 256.787 277.34H266.065C266.065 277.34 269.363 229.133 267.69 208.108C263.441 154.897 272.921 150.559 263.165 133.368L242.814 133.36Z" fill="url(#paint11_linear_329_1282)"/>
<path opacity="0.4" d="M254.497 151.014C250.82 154.873 247.853 159.35 245.731 164.239C246.812 174.735 248.095 186.385 249.46 196.589C255.061 182.09 256.796 166.385 254.497 151.014Z" fill="black"/>
<path d="M236.324 133.068C236.324 133.068 227.753 184.078 226.404 207.069C229.768 228.329 243.529 273.27 243.529 273.27L251.97 270.207C251.97 270.207 247.299 221.204 242.221 207.792C253.652 169.309 262.052 159.577 259.607 133.361C253.749 133.361 236.324 133.068 236.324 133.068Z" fill="url(#paint12_linear_329_1282)"/>
<path d="M242.4 275.512L253.806 272.417L253.156 267.867L240.946 271.174L242.4 275.512Z" fill="#263238"/>
<path d="M255.512 277.527H267.332L267.95 273.383L255.447 272.961L255.512 277.527Z" fill="#263238"/>
<path d="M263.571 131.736L264.814 134.214C264.911 134.409 264.684 134.604 264.367 134.604H235.381C235.137 134.604 234.926 134.482 234.91 134.319L234.658 131.882C234.658 131.711 234.861 131.565 235.129 131.565H263.116C263.2 131.554 263.286 131.563 263.365 131.593C263.445 131.623 263.515 131.672 263.571 131.736Z" fill="url(#paint13_linear_329_1282)"/>
<path opacity="0.5" d="M263.571 131.736L264.814 134.214C264.911 134.409 264.684 134.604 264.367 134.604H235.381C235.137 134.604 234.926 134.482 234.91 134.319L234.658 131.882C234.658 131.711 234.861 131.565 235.129 131.565H263.116C263.2 131.554 263.286 131.563 263.365 131.593C263.445 131.623 263.515 131.672 263.571 131.736Z" fill="black"/>
<path d="M259.81 134.855H260.558C260.712 134.855 260.826 134.774 260.818 134.685L260.46 131.435C260.46 131.338 260.322 131.265 260.176 131.265H259.42C259.274 131.265 259.16 131.338 259.168 131.435L259.518 134.685C259.534 134.79 259.664 134.855 259.81 134.855Z" fill="url(#paint14_linear_329_1282)"/>
<path d="M249.753 111.198C249.663 111.197 249.576 111.167 249.504 111.113C249.433 111.059 249.38 110.983 249.355 110.897C246.706 101.1 241.231 93.025 238.574 91.8064C238.368 91.6796 238.12 91.6388 237.884 91.6927C237.835 91.7185 237.781 91.734 237.725 91.7383C237.67 91.7426 237.615 91.7355 237.562 91.7174C237.51 91.6994 237.462 91.6708 237.421 91.6334C237.38 91.5961 237.347 91.5507 237.324 91.5002C237.301 91.4496 237.289 91.3949 237.288 91.3395C237.287 91.284 237.298 91.229 237.319 91.1778C237.34 91.1266 237.372 91.0802 237.412 91.0416C237.451 91.003 237.499 90.973 237.551 90.9534C237.773 90.8719 238.01 90.8398 238.246 90.8594C238.481 90.8791 238.71 90.95 238.915 91.0671C241.726 92.3994 247.283 100.361 250.061 110.378C252.052 110.378 255.122 110.109 255.87 110.044C256.796 108.94 263.604 100.426 261.061 91.1077C261.046 91.0565 261.042 91.0029 261.048 90.95C261.055 90.8971 261.072 90.846 261.098 90.7998C261.125 90.7536 261.16 90.7132 261.203 90.681C261.245 90.6487 261.294 90.6253 261.345 90.6122C261.449 90.5848 261.559 90.5993 261.652 90.6525C261.744 90.7057 261.812 90.7934 261.841 90.8965C264.676 101.263 256.455 110.613 256.365 110.703C256.334 110.742 256.294 110.774 256.25 110.798C256.205 110.822 256.156 110.836 256.105 110.841C256.065 110.841 252.011 111.198 249.753 111.198Z" fill="url(#paint15_linear_329_1282)"/>
<path d="M263.214 116.934C258.786 108.64 256.975 108.055 256.187 105.39C256.784 103.9 257.636 102.526 258.705 101.328C258.169 101.174 257.015 100.946 256.268 100.808C256.349 100.443 256.439 100.085 256.52 99.736C255.707 99.645 254.884 99.6833 254.083 99.8497V99.0373C253.051 98.8128 251.991 98.7443 250.939 98.8342C251.031 99.2187 251.12 99.6087 251.207 100.004C250.394 100.158 249.16 100.41 248.567 100.581C249.719 101.886 250.565 103.432 251.044 105.106C248.656 109.208 239.378 135.578 254.473 137.601C269.567 139.624 267.633 125.237 263.214 116.934Z" fill="url(#paint16_linear_329_1282)"/>
<path opacity="0.4" d="M263.214 116.934C258.786 108.64 256.975 108.055 256.187 105.39C256.784 103.9 257.636 102.526 258.705 101.328C258.169 101.174 257.015 100.946 256.268 100.808C256.349 100.443 256.439 100.085 256.52 99.736C255.707 99.645 254.884 99.6833 254.083 99.8497V99.0373C253.051 98.8128 251.991 98.7443 250.939 98.8342C251.031 99.2187 251.12 99.6087 251.207 100.004C250.394 100.158 249.16 100.41 248.567 100.581C249.719 101.886 250.565 103.432 251.044 105.106C248.656 109.208 239.378 135.578 254.473 137.601C269.567 139.624 267.633 125.237 263.214 116.934Z" fill="white"/>
<path d="M250.427 104.318C250.333 104.736 250.292 105.165 250.305 105.593C250.305 105.894 251.118 106.097 252.019 106.186C252.921 106.276 256.707 106.422 256.585 105.999C256.463 105.577 256.772 105 256.788 104.643C256.804 104.285 255.285 104.269 254.01 104.318C252.734 104.367 250.679 103.863 250.427 104.318Z" fill="url(#paint17_linear_329_1282)"/>
<path d="M241.645 134.855H242.393C242.539 134.855 242.653 134.774 242.644 134.685L242.295 131.435C242.295 131.338 242.157 131.265 242.003 131.265H241.28C241.133 131.265 241.02 131.338 241.028 131.435L241.377 134.685C241.361 134.79 241.491 134.855 241.645 134.855Z" fill="url(#paint18_linear_329_1282)"/>
<defs>
<linearGradient id="paint0_linear_329_1282" x1="139.551" y1="241.24" x2="150.968" y2="71.2794" gradientUnits="userSpaceOnUse">
<stop offset="0.296875" stop-color="#C018CE"/>
<stop offset="1" stop-color="#0A7ACC"/>
</linearGradient>
<linearGradient id="paint1_linear_329_1282" x1="184.29" y1="54.7561" x2="184.293" y2="54.0352" gradientUnits="userSpaceOnUse">
<stop offset="0.296875" stop-color="#C018CE"/>
<stop offset="1" stop-color="#0A7ACC"/>
</linearGradient>
<linearGradient id="paint2_linear_329_1282" x1="173.368" y1="54.7561" x2="173.374" y2="54.0353" gradientUnits="userSpaceOnUse">
<stop offset="0.296875" stop-color="#C018CE"/>
<stop offset="1" stop-color="#0A7ACC"/>
</linearGradient>
<linearGradient id="paint3_linear_329_1282" x1="147.155" y1="230.298" x2="158.073" y2="67.7507" gradientUnits="userSpaceOnUse">
<stop offset="0.296875" stop-color="#C018CE"/>
<stop offset="1" stop-color="#0A7ACC"/>
</linearGradient>
<linearGradient id="paint4_linear_329_1282" x1="154.712" y1="125.227" x2="155.048" y2="108.182" gradientUnits="userSpaceOnUse">
<stop offset="0.296875" stop-color="#C018CE"/>
<stop offset="1" stop-color="#0A7ACC"/>
</linearGradient>
<linearGradient id="paint5_linear_329_1282" x1="164.126" y1="102.426" x2="150.682" y2="88.0605" gradientUnits="userSpaceOnUse">
<stop offset="0.296875" stop-color="#C018CE"/>
<stop offset="1" stop-color="#0A7ACC"/>
</linearGradient>
<linearGradient id="paint6_linear_329_1282" x1="254.542" y1="286.854" x2="254.575" y2="285.32" gradientUnits="userSpaceOnUse">
<stop offset="0.296875" stop-color="#C018CE"/>
<stop offset="1" stop-color="#0A7ACC"/>
</linearGradient>
<linearGradient id="paint7_linear_329_1282" x1="255.48" y1="286.531" x2="255.662" y2="283.826" gradientUnits="userSpaceOnUse">
<stop offset="0.296875" stop-color="#C018CE"/>
<stop offset="1" stop-color="#0A7ACC"/>
</linearGradient>
<linearGradient id="paint8_linear_329_1282" x1="244.563" y1="285.029" x2="244.593" y2="283.448" gradientUnits="userSpaceOnUse">
<stop offset="0.296875" stop-color="#C018CE"/>
<stop offset="1" stop-color="#0A7ACC"/>
</linearGradient>
<linearGradient id="paint9_linear_329_1282" x1="245.056" y1="283.588" x2="245.114" y2="281.601" gradientUnits="userSpaceOnUse">
<stop offset="0.296875" stop-color="#C018CE"/>
<stop offset="1" stop-color="#0A7ACC"/>
</linearGradient>
<linearGradient id="paint10_linear_329_1282" x1="258.713" y1="64.356" x2="259.172" y2="52.9282" gradientUnits="userSpaceOnUse">
<stop offset="0.296875" stop-color="#C018CE"/>
<stop offset="1" stop-color="#0A7ACC"/>
</linearGradient>
<linearGradient id="paint11_linear_329_1282" x1="252.41" y1="269.103" x2="282.318" y2="148.769" gradientUnits="userSpaceOnUse">
<stop offset="0.296875" stop-color="#C018CE"/>
<stop offset="1" stop-color="#0A7ACC"/>
</linearGradient>
<linearGradient id="paint12_linear_329_1282" x1="239.134" y1="265.25" x2="261.101" y2="144.842" gradientUnits="userSpaceOnUse">
<stop offset="0.296875" stop-color="#C018CE"/>
<stop offset="1" stop-color="#0A7ACC"/>
</linearGradient>
<linearGradient id="paint13_linear_329_1282" x1="246.082" y1="134.43" x2="246.094" y2="131.729" gradientUnits="userSpaceOnUse">
<stop offset="0.296875" stop-color="#C018CE"/>
<stop offset="1" stop-color="#0A7ACC"/>
</linearGradient>
<linearGradient id="paint14_linear_329_1282" x1="259.793" y1="134.65" x2="260.093" y2="131.492" gradientUnits="userSpaceOnUse">
<stop offset="0.296875" stop-color="#C018CE"/>
<stop offset="1" stop-color="#0A7ACC"/>
</linearGradient>
<linearGradient id="paint15_linear_329_1282" x1="246.807" y1="110.02" x2="247.462" y2="91.7631" gradientUnits="userSpaceOnUse">
<stop offset="0.296875" stop-color="#C018CE"/>
<stop offset="1" stop-color="#0A7ACC"/>
</linearGradient>
<linearGradient id="paint16_linear_329_1282" x1="253.741" y1="135.563" x2="256.622" y2="101.198" gradientUnits="userSpaceOnUse">
<stop offset="0.296875" stop-color="#C018CE"/>
<stop offset="1" stop-color="#0A7ACC"/>
</linearGradient>
<linearGradient id="paint17_linear_329_1282" x1="252.758" y1="106.162" x2="252.786" y2="104.246" gradientUnits="userSpaceOnUse">
<stop offset="0.296875" stop-color="#C018CE"/>
<stop offset="1" stop-color="#0A7ACC"/>
</linearGradient>
<linearGradient id="paint18_linear_329_1282" x1="241.64" y1="134.65" x2="241.946" y2="131.493" gradientUnits="userSpaceOnUse">
<stop offset="0.296875" stop-color="#C018CE"/>
<stop offset="1" stop-color="#0A7ACC"/>
</linearGradient>
</defs>
</svg>
