<svg width="28" height="28" viewBox="0 0 28 28" fill="none" xmlns="http://www.w3.org/2000/svg">
<g id="twitter" clip-path="url(#clip0_651_222)">
<path id="Vector" d="M26.6 3.61575C25.5274 4.37229 24.3399 4.95092 23.0832 5.32935C22.4086 4.55377 21.5122 4.00405 20.515 3.75455C19.5179 3.50505 18.4682 3.56781 17.5079 3.93434C16.5476 4.30087 15.723 4.95348 15.1457 5.80392C14.5684 6.65435 14.2662 7.66157 14.28 8.68935V9.80935C12.3117 9.86039 10.3614 9.42387 8.60269 8.53865C6.84399 7.65344 5.33152 6.34703 4.19996 4.73575C4.19996 4.73575 -0.280039 14.8158 9.79996 19.2958C7.49335 20.8615 4.74558 21.6466 1.95996 21.5358C12.04 27.1358 24.36 21.5358 24.36 8.65575C24.3589 8.34378 24.3289 8.03258 24.2704 7.72615C25.4134 6.59887 26.2201 5.17559 26.6 3.61575Z" stroke="#6681B9" stroke-width="2.24" stroke-linecap="round" stroke-linejoin="round"/>
</g>
<defs>
<clipPath id="clip0_651_222">
<rect width="26.88" height="26.88" fill="white" transform="translate(0.839844 0.255859)"/>
</clipPath>
</defs>
</svg>
