<svg width="634" height="80" viewBox="0 0 634 75" fill="none" xmlns="http://www.w3.org/2000/svg">
<mask id="mask0_274_754" style="mask-type:alpha" maskUnits="userSpaceOnUse" x="2" y="12" width="600" height="37">
<mask id="path-1-outside-1_274_754" maskUnits="userSpaceOnUse" x="-3" y="2" width="610" height="52" fill="black">
<rect fill="white" x="-3" y="2" width="610" height="52"/>
<path d="M31.6406 45.4688C30.7812 45.8438 30 46.1953 29.2969 46.5234C28.6094 46.8516 27.7031 47.1953 26.5781 47.5547C25.625 47.8516 24.5859 48.1016 23.4609 48.3047C22.3516 48.5234 21.125 48.6328 19.7812 48.6328C17.25 48.6328 14.9453 48.2812 12.8672 47.5781C10.8047 46.8594 9.00781 45.7422 7.47656 44.2266C5.97656 42.7422 4.80469 40.8594 3.96094 38.5781C3.11719 36.2812 2.69531 33.6172 2.69531 30.5859C2.69531 27.7109 3.10156 25.1406 3.91406 22.875C4.72656 20.6094 5.89844 18.6953 7.42969 17.1328C8.91406 15.6172 10.7031 14.4609 12.7969 13.6641C14.9062 12.8672 17.2422 12.4688 19.8047 12.4688C21.6797 12.4688 23.5469 12.6953 25.4062 13.1484C27.2812 13.6016 29.3594 14.3984 31.6406 15.5391V21.0469H31.2891C29.3672 19.4375 27.4609 18.2656 25.5703 17.5312C23.6797 16.7969 21.6562 16.4297 19.5 16.4297C17.7344 16.4297 16.1406 16.7188 14.7188 17.2969C13.3125 17.8594 12.0547 18.7422 10.9453 19.9453C9.86719 21.1172 9.02344 22.6016 8.41406 24.3984C7.82031 26.1797 7.52344 28.2422 7.52344 30.5859C7.52344 33.0391 7.85156 35.1484 8.50781 36.9141C9.17969 38.6797 10.0391 40.1172 11.0859 41.2266C12.1797 42.3828 13.4531 43.2422 14.9062 43.8047C16.375 44.3516 17.9219 44.625 19.5469 44.625C21.7812 44.625 23.875 44.2422 25.8281 43.4766C27.7812 42.7109 29.6094 41.5625 31.3125 40.0312H31.6406V45.4688ZM69.4781 48H63.4547L51.7828 34.125H45.2438V48H40.6031V13.1016H50.3766C52.4859 13.1016 54.2438 13.2422 55.65 13.5234C57.0563 13.7891 58.3219 14.2734 59.4469 14.9766C60.7125 15.7734 61.6969 16.7812 62.4 18C63.1188 19.2031 63.4781 20.7344 63.4781 22.5938C63.4781 25.1094 62.8453 27.2188 61.5797 28.9219C60.3141 30.6094 58.5719 31.8828 56.3531 32.7422L69.4781 48ZM58.6266 22.9219C58.6266 21.9219 58.4469 21.0391 58.0875 20.2734C57.7438 19.4922 57.1656 18.8359 56.3531 18.3047C55.6813 17.8516 54.8844 17.5391 53.9625 17.3672C53.0406 17.1797 51.9547 17.0859 50.7047 17.0859H45.2438V30.2578H49.9313C51.4 30.2578 52.6813 30.1328 53.775 29.8828C54.8688 29.6172 55.7984 29.1328 56.5641 28.4297C57.2672 27.7734 57.7828 27.0234 58.1109 26.1797C58.4547 25.3203 58.6266 24.2344 58.6266 22.9219ZM99.3703 48H76.3781V13.1016H99.3703V17.2266H81.0188V26.7891H99.3703V30.9141H81.0188V43.875H99.3703V48ZM136.669 48H131.723L128.302 38.2734H113.208L109.786 48H105.075L117.778 13.1016H123.966L136.669 48ZM126.872 34.2891L120.755 17.1562L114.614 34.2891H126.872ZM166.444 17.2266H153.975V48H149.334V17.2266H136.866V13.1016H166.444V17.2266ZM196.523 48H173.531V13.1016H196.523V17.2266H178.172V26.7891H196.523V30.9141H178.172V43.875H196.523V48ZM250.284 13.1016L238.003 32.6953V48H233.363V33.1875L221.034 13.1016H226.167L235.706 28.7109L245.339 13.1016H250.284ZM283.059 17.1094C284.481 18.6719 285.567 20.5859 286.317 22.8516C287.083 25.1172 287.466 27.6875 287.466 30.5625C287.466 33.4375 287.075 36.0156 286.294 38.2969C285.528 40.5625 284.45 42.4531 283.059 43.9688C281.622 45.5469 279.919 46.7344 277.95 47.5312C275.997 48.3281 273.762 48.7266 271.247 48.7266C268.794 48.7266 266.559 48.3203 264.544 47.5078C262.544 46.6953 260.841 45.5156 259.434 43.9688C258.028 42.4219 256.942 40.5234 256.177 38.2734C255.427 36.0234 255.052 33.4531 255.052 30.5625C255.052 27.7188 255.427 25.1719 256.177 22.9219C256.927 20.6562 258.02 18.7188 259.458 17.1094C260.833 15.5781 262.536 14.4063 264.567 13.5938C266.614 12.7812 268.841 12.375 271.247 12.375C273.747 12.375 275.989 12.7891 277.973 13.6172C279.973 14.4297 281.669 15.5937 283.059 17.1094ZM282.637 30.5625C282.637 26.0312 281.622 22.5391 279.591 20.0859C277.559 17.6172 274.786 16.3828 271.27 16.3828C267.723 16.3828 264.934 17.6172 262.903 20.0859C260.887 22.5391 259.88 26.0312 259.88 30.5625C259.88 35.1406 260.911 38.6484 262.973 41.0859C265.036 43.5078 267.802 44.7188 271.27 44.7188C274.739 44.7188 277.497 43.5078 279.544 41.0859C281.606 38.6484 282.637 35.1406 282.637 30.5625ZM323.498 33.9844C323.498 36.5156 323.217 38.7266 322.655 40.6172C322.108 42.4922 321.202 44.0547 319.936 45.3047C318.733 46.4922 317.327 47.3594 315.717 47.9062C314.108 48.4531 312.233 48.7266 310.092 48.7266C307.905 48.7266 305.998 48.4375 304.373 47.8594C302.748 47.2812 301.381 46.4297 300.272 45.3047C299.006 44.0234 298.092 42.4766 297.53 40.6641C296.983 38.8516 296.709 36.625 296.709 33.9844V13.1016H301.35V34.2188C301.35 36.1094 301.475 37.6016 301.725 38.6953C301.991 39.7891 302.428 40.7812 303.038 41.6719C303.725 42.6875 304.655 43.4531 305.827 43.9688C307.014 44.4844 308.436 44.7422 310.092 44.7422C311.764 44.7422 313.186 44.4922 314.358 43.9922C315.53 43.4766 316.467 42.7031 317.17 41.6719C317.78 40.7812 318.209 39.7656 318.459 38.625C318.725 37.4688 318.858 36.0391 318.858 34.3359V13.1016H323.498V33.9844ZM363.656 48H357.633L345.961 34.125H339.422V48H334.781V13.1016H344.555C346.664 13.1016 348.422 13.2422 349.828 13.5234C351.234 13.7891 352.5 14.2734 353.625 14.9766C354.891 15.7734 355.875 16.7812 356.578 18C357.297 19.2031 357.656 20.7344 357.656 22.5938C357.656 25.1094 357.023 27.2188 355.758 28.9219C354.492 30.6094 352.75 31.8828 350.531 32.7422L363.656 48ZM352.805 22.9219C352.805 21.9219 352.625 21.0391 352.266 20.2734C351.922 19.4922 351.344 18.8359 350.531 18.3047C349.859 17.8516 349.062 17.5391 348.141 17.3672C347.219 17.1797 346.133 17.0859 344.883 17.0859H339.422V30.2578H344.109C345.578 30.2578 346.859 30.1328 347.953 29.8828C349.047 29.6172 349.977 29.1328 350.742 28.4297C351.445 27.7734 351.961 27.0234 352.289 26.1797C352.633 25.3203 352.805 24.2344 352.805 22.9219ZM412.659 23.6484C412.659 25.1953 412.386 26.6328 411.839 27.9609C411.308 29.2734 410.558 30.4141 409.589 31.3828C408.386 32.5859 406.964 33.4922 405.323 34.1016C403.683 34.6953 401.612 34.9922 399.112 34.9922H394.472V48H389.831V13.1016H399.3C401.394 13.1016 403.167 13.2813 404.62 13.6406C406.073 13.9844 407.362 14.5312 408.487 15.2812C409.816 16.1719 410.839 17.2812 411.558 18.6094C412.292 19.9375 412.659 21.6172 412.659 23.6484ZM407.831 23.7656C407.831 22.5625 407.62 21.5156 407.198 20.625C406.777 19.7344 406.136 19.0078 405.277 18.4453C404.527 17.9609 403.667 17.6172 402.698 17.4141C401.745 17.1953 400.534 17.0859 399.066 17.0859H394.472V31.0312H398.386C400.261 31.0312 401.784 30.8672 402.956 30.5391C404.128 30.1953 405.081 29.6562 405.816 28.9219C406.55 28.1719 407.066 27.3828 407.362 26.5547C407.675 25.7266 407.831 24.7969 407.831 23.7656ZM450.075 48H444.052L432.38 34.125H425.841V48H421.2V13.1016H430.973C433.083 13.1016 434.841 13.2422 436.247 13.5234C437.653 13.7891 438.919 14.2734 440.044 14.9766C441.309 15.7734 442.294 16.7812 442.997 18C443.716 19.2031 444.075 20.7344 444.075 22.5938C444.075 25.1094 443.442 27.2188 442.177 28.9219C440.911 30.6094 439.169 31.8828 436.95 32.7422L450.075 48ZM439.223 22.9219C439.223 21.9219 439.044 21.0391 438.684 20.2734C438.341 19.4922 437.763 18.8359 436.95 18.3047C436.278 17.8516 435.481 17.5391 434.559 17.3672C433.638 17.1797 432.552 17.0859 431.302 17.0859H425.841V30.2578H430.528C431.997 30.2578 433.278 30.1328 434.372 29.8828C435.466 29.6172 436.395 29.1328 437.161 28.4297C437.864 27.7734 438.38 27.0234 438.708 26.1797C439.052 25.3203 439.223 24.2344 439.223 22.9219ZM482.991 17.1094C484.413 18.6719 485.498 20.5859 486.248 22.8516C487.014 25.1172 487.397 27.6875 487.397 30.5625C487.397 33.4375 487.006 36.0156 486.225 38.2969C485.459 40.5625 484.381 42.4531 482.991 43.9688C481.553 45.5469 479.85 46.7344 477.881 47.5312C475.928 48.3281 473.694 48.7266 471.178 48.7266C468.725 48.7266 466.491 48.3203 464.475 47.5078C462.475 46.6953 460.772 45.5156 459.366 43.9688C457.959 42.4219 456.873 40.5234 456.108 38.2734C455.358 36.0234 454.983 33.4531 454.983 30.5625C454.983 27.7188 455.358 25.1719 456.108 22.9219C456.858 20.6562 457.952 18.7188 459.389 17.1094C460.764 15.5781 462.467 14.4063 464.498 13.5938C466.545 12.7812 468.772 12.375 471.178 12.375C473.678 12.375 475.92 12.7891 477.905 13.6172C479.905 14.4297 481.6 15.5937 482.991 17.1094ZM482.569 30.5625C482.569 26.0312 481.553 22.5391 479.522 20.0859C477.491 17.6172 474.717 16.3828 471.202 16.3828C467.655 16.3828 464.866 17.6172 462.834 20.0859C460.819 22.5391 459.811 26.0312 459.811 30.5625C459.811 35.1406 460.842 38.6484 462.905 41.0859C464.967 43.5078 467.733 44.7188 471.202 44.7188C474.67 44.7188 477.428 43.5078 479.475 41.0859C481.538 38.6484 482.569 35.1406 482.569 30.5625ZM519.445 17.2266H501.797V27.0703H516.961V31.1953H501.797V48H497.156V13.1016H519.445V17.2266ZM539.47 48H525.689V44.4375H530.259V16.6641H525.689V13.1016H539.47V16.6641H534.9V44.4375H539.47V48ZM571.847 48H549.769V13.1016H554.409V43.875H571.847V48ZM601.88 48H578.888V13.1016H601.88V17.2266H583.528V26.7891H601.88V30.9141H583.528V43.875H601.88V48Z"/>
</mask>
<path d="M31.6406 45.4688L33.5604 49.8681L36.4406 48.6113V45.4688H31.6406ZM29.2969 46.5234L27.267 42.1738L27.2482 42.1826L27.2294 42.1915L29.2969 46.5234ZM26.5781 47.5547L28.0056 52.1375L28.0222 52.1324L28.0387 52.1271L26.5781 47.5547ZM23.4609 48.3047L22.6081 43.5811L22.5701 43.5879L22.5323 43.5954L23.4609 48.3047ZM12.8672 47.5781L11.2876 52.1108L11.3082 52.1179L11.3288 52.1249L12.8672 47.5781ZM7.47656 44.2266L10.8532 40.8151L10.8529 40.8147L7.47656 44.2266ZM3.96094 38.5781L-0.544689 40.2333L-0.541 40.2432L3.96094 38.5781ZM7.42969 17.1328L10.8579 20.4925L10.859 20.4914L7.42969 17.1328ZM12.7969 13.6641L11.1005 9.17378L11.0895 9.17799L12.7969 13.6641ZM25.4062 13.1484L24.2698 17.812L24.2787 17.8141L25.4062 13.1484ZM31.6406 15.5391H36.4406V12.5725L33.7873 11.2458L31.6406 15.5391ZM31.6406 21.0469V25.8469H36.4406V21.0469H31.6406ZM31.2891 21.0469L28.2074 24.727L29.5447 25.8469H31.2891V21.0469ZM14.7188 17.2969L16.5014 21.7536L16.5141 21.7485L16.5267 21.7434L14.7188 17.2969ZM10.9453 19.9453L7.4165 16.6915L7.41284 16.6954L10.9453 19.9453ZM8.41406 24.3984L3.86835 22.8568L3.86434 22.8687L3.86038 22.8805L8.41406 24.3984ZM8.50781 36.9141L4.00854 38.5864L4.01503 38.6038L4.02164 38.6212L8.50781 36.9141ZM11.0859 41.2266L7.59491 44.5209L7.59889 44.5251L11.0859 41.2266ZM14.9062 43.8047L13.1735 48.281L13.2023 48.2922L13.2314 48.303L14.9062 43.8047ZM31.3125 40.0312V35.2313H29.472L28.1033 36.4618L31.3125 40.0312ZM31.6406 40.0312H36.4406V35.2313H31.6406V40.0312ZM29.7209 41.0694C28.8319 41.4573 28.0132 41.8255 27.267 42.1738L31.3267 50.8731C31.9868 50.5651 32.7306 50.2302 33.5604 49.8681L29.7209 41.0694ZM27.2294 42.1915C26.8144 42.3896 26.1345 42.6574 25.1175 42.9823L28.0387 52.1271C29.2717 51.7332 30.4043 51.3136 31.3644 50.8553L27.2294 42.1915ZM25.1507 42.9718C24.4107 43.2023 23.5661 43.4081 22.6081 43.5811L24.3138 53.0283C25.6058 52.795 26.8393 52.5008 28.0056 52.1375L25.1507 42.9718ZM22.5323 43.5954C21.7796 43.7438 20.8696 43.8328 19.7812 43.8328V53.4328C21.3804 53.4328 22.9236 53.3031 24.3895 53.014L22.5323 43.5954ZM19.7812 43.8328C17.6942 43.8328 15.9185 43.5432 14.4056 43.0313L11.3288 52.1249C13.9721 53.0193 16.8058 53.4328 19.7812 53.4328V43.8328ZM14.4467 43.0455C13.0497 42.5586 11.8692 41.8207 10.8532 40.8151L4.0999 47.638C6.14641 49.6637 8.55969 51.1601 11.2876 52.1108L14.4467 43.0455ZM10.8529 40.8147C9.92174 39.8933 9.10046 38.6369 8.46288 36.913L-0.541 40.2432C0.508918 43.0819 2.03138 45.5911 4.10027 47.6384L10.8529 40.8147ZM8.46655 36.923C7.85778 35.2658 7.49531 33.1823 7.49531 30.5859H-2.10469C-2.10469 34.052 -1.6234 37.2967 -0.544677 40.2332L8.46655 36.923ZM7.49531 30.5859C7.49531 28.1587 7.83854 26.151 8.43231 24.4953L-0.60418 21.2547C-1.63541 24.1302 -2.10469 27.2632 -2.10469 30.5859H7.49531ZM8.43231 24.4953C9.03477 22.8154 9.8579 21.5129 10.8579 20.4925L4.00147 13.7732C1.93897 15.8777 0.418351 18.4034 -0.60418 21.2547L8.43231 24.4953ZM10.859 20.4914C11.8306 19.4993 13.0221 18.7142 14.5043 18.1501L11.0895 9.17799C8.38412 10.2076 5.99751 11.7351 4.00041 13.7742L10.859 20.4914ZM14.4932 18.1543C15.9918 17.5882 17.7434 17.2687 19.8047 17.2687V7.66875C16.741 7.66875 13.8207 8.14618 11.1006 9.1738L14.4932 18.1543ZM19.8047 17.2687C21.2889 17.2687 22.7747 17.4476 24.2698 17.812L26.5427 8.48492C24.3191 7.94302 22.0705 7.66875 19.8047 7.66875V17.2687ZM24.2787 17.8141C25.7091 18.1598 27.4401 18.8053 29.494 19.8323L33.7873 11.2458C31.2787 9.99154 28.8534 9.04333 26.5338 8.48275L24.2787 17.8141ZM26.8406 15.5391V21.0469H36.4406V15.5391H26.8406ZM31.6406 16.2469H31.2891V25.8469H31.6406V16.2469ZM34.3708 17.3668C32.1383 15.4973 29.7867 14.0196 27.3083 13.0569L23.8324 22.0056C25.1352 22.5116 26.5961 23.3777 28.2074 24.727L34.3708 17.3668ZM27.3083 13.0569C24.8292 12.094 22.2128 11.6297 19.5 11.6297V21.2297C21.0997 21.2297 22.5301 21.4997 23.8324 22.0056L27.3083 13.0569ZM19.5 11.6297C17.2068 11.6297 14.9865 12.0064 12.9108 12.8504L16.5267 21.7434C17.2947 21.4311 18.262 21.2297 19.5 21.2297V11.6297ZM12.9361 12.8402C10.813 13.6894 8.97124 15.0053 7.4165 16.6915L14.4741 23.1992C15.1381 22.479 15.812 22.0293 16.5014 21.7536L12.9361 12.8402ZM7.41284 16.6954C5.80329 18.445 4.65216 20.5456 3.86835 22.8568L12.9598 25.94C13.3947 24.6575 13.9311 23.7894 14.4778 23.1952L7.41284 16.6954ZM3.86038 22.8805C3.06878 25.2554 2.72344 27.8489 2.72344 30.5859H12.3234C12.3234 28.6355 12.5718 27.104 12.9677 25.9163L3.86038 22.8805ZM2.72344 30.5859C2.72344 33.4464 3.10343 36.1512 4.00854 38.5864L13.0071 35.2418C12.5997 34.1457 12.3234 32.6318 12.3234 30.5859H2.72344ZM4.02164 38.6212C4.86596 40.84 6.02543 42.8577 7.59491 44.5209L14.577 37.9322C14.0527 37.3766 13.4934 36.5194 12.994 35.2069L4.02164 38.6212ZM7.59889 44.5251C9.17181 46.1879 11.0408 47.4555 13.1735 48.281L16.639 39.3284C15.8654 39.0289 15.1876 38.5777 14.573 37.928L7.59889 44.5251ZM13.2314 48.303C15.2556 49.0567 17.3714 49.425 19.5469 49.425V39.825C18.4723 39.825 17.4944 39.6464 16.5812 39.3064L13.2314 48.303ZM19.5469 49.425C22.3413 49.425 25.0331 48.9438 27.5799 47.9455L24.0763 39.0077C22.7169 39.5406 21.2212 39.825 19.5469 39.825V49.425ZM27.5799 47.9455C30.116 46.9514 32.4299 45.4814 34.5217 43.6007L28.1033 36.4618C26.7888 37.6436 25.4465 38.4705 24.0763 39.0077L27.5799 47.9455ZM31.3125 44.8312H31.6406V35.2313H31.3125V44.8312ZM26.8406 40.0312V45.4688H36.4406V40.0312H26.8406ZM69.4781 48V52.8H79.9387L73.117 44.8698L69.4781 48ZM63.4547 48L59.7815 51.0899L61.22 52.8H63.4547V48ZM51.7828 34.125L55.456 31.0351L54.0175 29.325H51.7828V34.125ZM45.2438 34.125V29.325H40.4438V34.125H45.2438ZM45.2438 48V52.8H50.0438V48H45.2438ZM40.6031 48H35.8031V52.8H40.6031V48ZM40.6031 13.1016V8.30156H35.8031V13.1016H40.6031ZM55.65 13.5234L54.7086 18.2302L54.7338 18.2353L54.7591 18.24L55.65 13.5234ZM59.4469 14.9766L62.0044 10.9146L61.9976 10.9104L61.9909 10.9062L59.4469 14.9766ZM62.4 18L58.2423 20.3987L58.2606 20.4303L58.2793 20.4617L62.4 18ZM61.5797 28.9219L65.4197 31.8019L65.426 31.7934L65.4324 31.7849L61.5797 28.9219ZM56.3531 32.7422L54.6195 28.2662L48.2826 30.7206L52.7142 35.8724L56.3531 32.7422ZM58.0875 20.2734L53.694 22.2066L53.7175 22.2601L53.7424 22.313L58.0875 20.2734ZM56.3531 18.3047L53.6692 22.2842L53.6977 22.3034L53.7263 22.3221L56.3531 18.3047ZM53.9625 17.3672L53.0058 22.0709L53.0442 22.0787L53.0827 22.0859L53.9625 17.3672ZM45.2438 17.0859V12.2859H40.4438V17.0859H45.2438ZM45.2438 30.2578H40.4438V35.0578H45.2438V30.2578ZM53.775 29.8828L54.8446 34.5621L54.8762 34.5549L54.9078 34.5472L53.775 29.8828ZM56.5641 28.4297L59.8108 31.965L59.8251 31.952L59.8392 31.9388L56.5641 28.4297ZM58.1109 26.1797L53.6543 24.397L53.6457 24.4184L53.6373 24.4399L58.1109 26.1797ZM69.4781 43.2H63.4547V52.8H69.4781V43.2ZM67.1279 44.9101L55.456 31.0351L48.1096 37.2149L59.7815 51.0899L67.1279 44.9101ZM51.7828 29.325H45.2438V38.925H51.7828V29.325ZM40.4438 34.125V48H50.0438V34.125H40.4438ZM45.2438 43.2H40.6031V52.8H45.2438V43.2ZM45.4031 48V13.1016H35.8031V48H45.4031ZM40.6031 17.9016H50.3766V8.30156H40.6031V17.9016ZM50.3766 17.9016C52.3027 17.9016 53.72 18.0325 54.7086 18.2302L56.5914 8.81665C54.7675 8.45188 52.6691 8.30156 50.3766 8.30156V17.9016ZM54.7591 18.24C55.6254 18.4037 56.3226 18.6842 56.9029 19.047L61.9909 10.9062C60.3212 9.86263 58.4871 9.17446 56.5409 8.80684L54.7591 18.24ZM56.8894 19.0385C57.5371 19.4463 57.9539 19.8987 58.2423 20.3987L66.5577 15.6013C65.4399 13.6638 63.8879 12.1006 62.0044 10.9146L56.8894 19.0385ZM58.2793 20.4617C58.4309 20.7154 58.6781 21.3261 58.6781 22.5938H68.2781C68.2781 20.1426 67.8066 17.6908 66.5207 15.5383L58.2793 20.4617ZM58.6781 22.5938C58.6781 24.2754 58.2694 25.329 57.727 26.0589L65.4324 31.7849C67.4213 29.1085 68.2781 25.9434 68.2781 22.5938H58.6781ZM57.7397 26.0419C57.0797 26.9218 56.1107 27.6886 54.6195 28.2662L58.0868 37.2182C61.033 36.077 63.5484 34.2969 65.4197 31.8019L57.7397 26.0419ZM52.7142 35.8724L65.8392 51.1302L73.117 44.8698L59.992 29.6119L52.7142 35.8724ZM63.4266 22.9219C63.4266 21.3441 63.1413 19.7437 62.4326 18.2339L53.7424 22.313C53.7524 22.3344 53.8266 22.4996 53.8266 22.9219H63.4266ZM62.481 18.3403C61.7131 16.595 60.4608 15.2555 58.9799 14.2872L53.7263 22.3221C53.8103 22.377 53.8202 22.3976 53.7944 22.3683C53.782 22.3542 53.7645 22.3321 53.7452 22.3021C53.7259 22.272 53.7085 22.2395 53.694 22.2066L62.481 18.3403ZM59.037 14.3251C57.7418 13.4516 56.3091 12.922 54.8423 12.6485L53.0827 22.0859C53.4596 22.1561 53.6207 22.2515 53.6692 22.2842L59.037 14.3251ZM54.9192 12.6635C53.5992 12.395 52.1782 12.2859 50.7047 12.2859V21.8859C51.7312 21.8859 52.482 21.9644 53.0058 22.0709L54.9192 12.6635ZM50.7047 12.2859H45.2438V21.8859H50.7047V12.2859ZM40.4438 17.0859V30.2578H50.0438V17.0859H40.4438ZM45.2438 35.0578H49.9313V25.4578H45.2438V35.0578ZM49.9313 35.0578C51.6561 35.0578 53.3115 34.9126 54.8446 34.5621L52.7054 25.2035C52.051 25.3531 51.1439 25.4578 49.9313 25.4578V35.0578ZM54.9078 34.5472C56.7232 34.1063 58.3985 33.2621 59.8108 31.965L53.3173 24.8943C53.1984 25.0035 53.0143 25.128 52.6422 25.2184L54.9078 34.5472ZM59.8392 31.9388C61.036 30.8217 61.9788 29.4771 62.5846 27.9194L53.6373 24.4399C53.5868 24.5697 53.4983 24.7252 53.2889 24.9206L59.8392 31.9388ZM62.5676 27.9624C63.2118 26.352 63.4266 24.6094 63.4266 22.9219H53.8266C53.8266 23.8593 53.6976 24.2886 53.6543 24.397L62.5676 27.9624ZM99.3703 48V52.8H104.17V48H99.3703ZM76.3781 48H71.5781V52.8H76.3781V48ZM76.3781 13.1016V8.30156H71.5781V13.1016H76.3781ZM99.3703 13.1016H104.17V8.30156H99.3703V13.1016ZM99.3703 17.2266V22.0266H104.17V17.2266H99.3703ZM81.0188 17.2266V12.4266H76.2188V17.2266H81.0188ZM81.0188 26.7891H76.2188V31.5891H81.0188V26.7891ZM99.3703 26.7891H104.17V21.9891H99.3703V26.7891ZM99.3703 30.9141V35.7141H104.17V30.9141H99.3703ZM81.0188 30.9141V26.1141H76.2188V30.9141H81.0188ZM81.0188 43.875H76.2188V48.675H81.0188V43.875ZM99.3703 43.875H104.17V39.075H99.3703V43.875ZM99.3703 43.2H76.3781V52.8H99.3703V43.2ZM81.1781 48V13.1016H71.5781V48H81.1781ZM76.3781 17.9016H99.3703V8.30156H76.3781V17.9016ZM94.5703 13.1016V17.2266H104.17V13.1016H94.5703ZM99.3703 12.4266H81.0188V22.0266H99.3703V12.4266ZM76.2188 17.2266V26.7891H85.8188V17.2266H76.2188ZM81.0188 31.5891H99.3703V21.9891H81.0188V31.5891ZM94.5703 26.7891V30.9141H104.17V26.7891H94.5703ZM99.3703 26.1141H81.0188V35.7141H99.3703V26.1141ZM76.2188 30.9141V43.875H85.8188V30.9141H76.2188ZM81.0188 48.675H99.3703V39.075H81.0188V48.675ZM94.5703 43.875V48H104.17V43.875H94.5703ZM136.669 48V52.8H143.524L141.179 46.3582L136.669 48ZM131.723 48L127.195 49.593L128.324 52.8H131.723V48ZM128.302 38.2734L132.83 36.6805L131.701 33.4734H128.302V38.2734ZM113.208 38.2734V33.4734H109.808L108.68 36.6805L113.208 38.2734ZM109.786 48V52.8H113.186L114.314 49.593L109.786 48ZM105.075 48L100.565 46.3582L98.2197 52.8H105.075V48ZM117.778 13.1016V8.30156H114.417L113.268 11.4597L117.778 13.1016ZM123.966 13.1016L128.476 11.4597L127.327 8.30156H123.966V13.1016ZM126.872 34.2891V39.0891H133.682L131.392 32.675L126.872 34.2891ZM120.755 17.1562L125.275 15.5422L120.763 2.90556L116.236 15.5367L120.755 17.1562ZM114.614 34.2891L110.096 32.6696L107.795 39.0891H114.614V34.2891ZM136.669 43.2H131.723V52.8H136.669V43.2ZM136.251 46.407L132.83 36.6805L123.774 39.8664L127.195 49.593L136.251 46.407ZM128.302 33.4734H113.208V43.0734H128.302V33.4734ZM108.68 36.6805L105.258 46.407L114.314 49.593L117.736 39.8664L108.68 36.6805ZM109.786 43.2H105.075V52.8H109.786V43.2ZM109.585 49.6418L122.289 14.7434L113.268 11.4597L100.565 46.3582L109.585 49.6418ZM117.778 17.9016H123.966V8.30156H117.778V17.9016ZM119.455 14.7434L132.158 49.6418L141.179 46.3582L128.476 11.4597L119.455 14.7434ZM131.392 32.675L125.275 15.5422L116.234 18.7703L122.351 35.9031L131.392 32.675ZM116.236 15.5367L110.096 32.6696L119.133 35.9086L125.273 18.7758L116.236 15.5367ZM114.614 39.0891H126.872V29.4891H114.614V39.0891ZM166.444 17.2266V22.0266H171.244V17.2266H166.444ZM153.975 17.2266V12.4266H149.175V17.2266H153.975ZM153.975 48V52.8H158.775V48H153.975ZM149.334 48H144.534V52.8H149.334V48ZM149.334 17.2266H154.134V12.4266H149.334V17.2266ZM136.866 17.2266H132.066V22.0266H136.866V17.2266ZM136.866 13.1016V8.30156H132.066V13.1016H136.866ZM166.444 13.1016H171.244V8.30156H166.444V13.1016ZM166.444 12.4266H153.975V22.0266H166.444V12.4266ZM149.175 17.2266V48H158.775V17.2266H149.175ZM153.975 43.2H149.334V52.8H153.975V43.2ZM154.134 48V17.2266H144.534V48H154.134ZM149.334 12.4266H136.866V22.0266H149.334V12.4266ZM141.666 17.2266V13.1016H132.066V17.2266H141.666ZM136.866 17.9016H166.444V8.30156H136.866V17.9016ZM161.644 13.1016V17.2266H171.244V13.1016H161.644ZM196.523 48V52.8H201.323V48H196.523ZM173.531 48H168.731V52.8H173.531V48ZM173.531 13.1016V8.30156H168.731V13.1016H173.531ZM196.523 13.1016H201.323V8.30156H196.523V13.1016ZM196.523 17.2266V22.0266H201.323V17.2266H196.523ZM178.172 17.2266V12.4266H173.372V17.2266H178.172ZM178.172 26.7891H173.372V31.5891H178.172V26.7891ZM196.523 26.7891H201.323V21.9891H196.523V26.7891ZM196.523 30.9141V35.7141H201.323V30.9141H196.523ZM178.172 30.9141V26.1141H173.372V30.9141H178.172ZM178.172 43.875H173.372V48.675H178.172V43.875ZM196.523 43.875H201.323V39.075H196.523V43.875ZM196.523 43.2H173.531V52.8H196.523V43.2ZM178.331 48V13.1016H168.731V48H178.331ZM173.531 17.9016H196.523V8.30156H173.531V17.9016ZM191.723 13.1016V17.2266H201.323V13.1016H191.723ZM196.523 12.4266H178.172V22.0266H196.523V12.4266ZM173.372 17.2266V26.7891H182.972V17.2266H173.372ZM178.172 31.5891H196.523V21.9891H178.172V31.5891ZM191.723 26.7891V30.9141H201.323V26.7891H191.723ZM196.523 26.1141H178.172V35.7141H196.523V26.1141ZM173.372 30.9141V43.875H182.972V30.9141H173.372ZM178.172 48.675H196.523V39.075H178.172V48.675ZM191.723 43.875V48H201.323V43.875H191.723ZM250.284 13.1016L254.351 15.6508L258.958 8.30156H250.284V13.1016ZM238.003 32.6953L233.936 30.1461L233.203 31.3153V32.6953H238.003ZM238.003 48V52.8H242.803V48H238.003ZM233.363 48H228.562V52.8H233.363V48ZM233.363 33.1875H238.163V31.8319L237.453 30.6766L233.363 33.1875ZM221.034 13.1016V8.30156H212.456L216.943 15.6124L221.034 13.1016ZM226.167 13.1016L230.263 10.5986L228.859 8.30156H226.167V13.1016ZM235.706 28.7109L231.611 31.2139L235.686 37.8833L239.791 31.2317L235.706 28.7109ZM245.339 13.1016V8.30156H242.661L241.254 10.5808L245.339 13.1016ZM246.217 10.5523L233.936 30.1461L242.07 35.2446L254.351 15.6508L246.217 10.5523ZM233.203 32.6953V48H242.803V32.6953H233.203ZM238.003 43.2H233.363V52.8H238.003V43.2ZM238.163 48V33.1875H228.562V48H238.163ZM237.453 30.6766L225.125 10.5907L216.943 15.6124L229.272 35.6984L237.453 30.6766ZM221.034 17.9016H226.167V8.30156H221.034V17.9016ZM222.071 15.6045L231.611 31.2139L239.802 26.208L230.263 10.5986L222.071 15.6045ZM239.791 31.2317L249.424 15.6224L241.254 10.5808L231.621 26.1901L239.791 31.2317ZM245.339 17.9016H250.284V8.30156H245.339V17.9016ZM283.059 17.1094L286.609 13.8788L286.603 13.8715L286.596 13.8642L283.059 17.1094ZM286.317 22.8516L281.76 24.36L281.765 24.3742L281.77 24.3883L286.317 22.8516ZM286.294 38.2969L281.753 36.7417L281.75 36.7509L281.746 36.7602L286.294 38.2969ZM283.059 43.9688L279.523 40.7236L279.517 40.73L279.511 40.7364L283.059 43.9688ZM277.95 47.5312L276.149 43.0819L276.137 43.0869L277.95 47.5312ZM264.544 47.5078L262.737 51.9549L262.749 51.9597L264.544 47.5078ZM256.177 38.2734L251.623 39.7913L251.628 39.8055L251.632 39.8197L256.177 38.2734ZM256.177 22.9219L260.73 24.4398L260.733 24.4303L256.177 22.9219ZM259.458 17.1094L255.886 13.9024L255.878 13.9118L259.458 17.1094ZM264.567 13.5938L262.796 9.13236L262.785 9.13706L264.567 13.5938ZM277.973 13.6172L276.125 18.0469L276.146 18.0557L276.167 18.0642L277.973 13.6172ZM279.591 20.0859L275.884 23.1357L275.889 23.1415L275.894 23.1472L279.591 20.0859ZM262.903 20.0859L259.197 17.0362L259.194 17.0387L262.903 20.0859ZM262.973 41.0859L259.309 44.1865L259.314 44.1923L259.319 44.1981L262.973 41.0859ZM279.544 41.0859L275.879 37.9854L275.878 37.9875L279.544 41.0859ZM279.509 20.34C280.423 21.3446 281.194 22.6498 281.76 24.36L290.874 21.3431C289.94 18.522 288.539 15.9992 286.609 13.8788L279.509 20.34ZM281.77 24.3883C282.338 26.0703 282.666 28.1077 282.666 30.5625H292.266C292.266 27.2673 291.827 24.164 290.865 21.3149L281.77 24.3883ZM282.666 30.5625C282.666 33.0073 282.333 35.0467 281.753 36.7417L290.835 39.852C291.817 36.9845 292.266 33.8677 292.266 30.5625H282.666ZM281.746 36.7602C281.16 38.4943 280.393 39.7746 279.523 40.7236L286.596 47.2139C288.507 45.1317 289.896 42.6307 290.841 39.8336L281.746 36.7602ZM279.511 40.7364C278.555 41.7859 277.448 42.5561 276.149 43.0819L279.751 51.9806C282.389 50.9126 284.689 49.3078 286.608 47.2011L279.511 40.7364ZM276.137 43.0869C274.859 43.6083 273.258 43.9266 271.247 43.9266V53.5266C274.267 53.5266 277.135 53.0479 279.763 51.9756L276.137 43.0869ZM271.247 43.9266C269.33 43.9266 267.715 43.6107 266.338 43.0559L262.749 51.9597C265.404 53.0299 268.258 53.5266 271.247 53.5266V43.9266ZM266.35 43.0608C264.994 42.5096 263.893 41.7377 262.986 40.7399L255.883 47.1976C257.788 49.2936 260.094 50.8811 262.737 51.9549L266.35 43.0608ZM262.986 40.7399C262.079 39.7423 261.303 38.4392 260.721 36.7272L251.632 39.8197C252.581 42.6076 253.977 45.1015 255.883 47.1976L262.986 40.7399ZM260.73 36.7555C260.175 35.0885 259.852 33.0461 259.852 30.5625H250.252C250.252 33.8602 250.679 36.9583 251.623 39.7913L260.73 36.7555ZM259.852 30.5625C259.852 28.1351 260.172 26.1141 260.73 24.4398L251.623 21.404C250.681 24.2297 250.252 27.3024 250.252 30.5625H259.852ZM260.733 24.4303C261.299 22.7223 262.082 21.3765 263.038 20.3069L255.878 13.9118C253.958 16.061 252.554 18.5902 251.62 21.4134L260.733 24.4303ZM263.029 20.3164C263.881 19.3678 264.959 18.6069 266.35 18.0504L262.785 9.13706C260.113 10.2056 257.785 11.7884 255.886 13.9024L263.029 20.3164ZM266.338 18.0551C267.771 17.4862 269.391 17.175 271.247 17.175V7.575C268.291 7.575 265.457 8.07625 262.796 9.13238L266.338 18.0551ZM271.247 17.175C273.214 17.175 274.813 17.4997 276.125 18.0469L279.822 9.18745C277.165 8.07847 274.279 7.575 271.247 7.575V17.175ZM276.167 18.0642C277.542 18.6227 278.636 19.3886 279.523 20.3545L286.596 13.8642C284.701 11.7989 282.405 10.2366 279.78 9.17015L276.167 18.0642ZM287.438 30.5625C287.438 25.3775 286.28 20.6387 283.288 17.0246L275.894 23.1472C276.963 24.4394 277.837 26.685 277.837 30.5625H287.438ZM283.297 17.0362C280.256 13.3397 276.059 11.5828 271.27 11.5828V21.1828C273.513 21.1828 274.863 21.8947 275.884 23.1357L283.297 17.0362ZM271.27 11.5828C266.466 11.5828 262.247 13.3289 259.197 17.0362L266.61 23.1357C267.622 21.9055 268.981 21.1828 271.27 21.1828V11.5828ZM259.194 17.0387C256.226 20.6519 255.08 25.385 255.08 30.5625H264.68C264.68 26.6775 265.549 24.4262 266.612 23.1332L259.194 17.0387ZM255.08 30.5625C255.08 35.7923 256.252 40.5735 259.309 44.1865L266.638 37.9854C265.57 36.7234 264.68 34.4889 264.68 30.5625H255.08ZM259.319 44.1981C262.383 47.7957 266.539 49.5187 271.27 49.5187V39.9188C269.064 39.9188 267.689 39.2199 266.628 37.9738L259.319 44.1981ZM271.27 49.5187C276.002 49.5187 280.158 47.795 283.21 44.1843L275.878 37.9875C274.836 39.2207 273.476 39.9188 271.27 39.9188V49.5187ZM283.208 44.1865C286.265 40.5735 287.438 35.7923 287.438 30.5625H277.837C277.837 34.4889 276.947 36.7234 275.879 37.9854L283.208 44.1865ZM322.655 40.6172L318.054 39.2484L318.05 39.2608L318.047 39.2732L322.655 40.6172ZM319.936 45.3047L323.308 48.7209L323.309 48.7198L319.936 45.3047ZM300.272 45.3047L303.69 41.9344L303.687 41.9315L300.272 45.3047ZM297.53 40.6641L292.934 42.0506L292.94 42.0687L292.945 42.0868L297.53 40.6641ZM296.709 13.1016V8.30156H291.909V13.1016H296.709ZM301.35 13.1016H306.15V8.30156H301.35V13.1016ZM301.725 38.6953L297.046 39.7649L297.053 39.7965L297.061 39.8281L301.725 38.6953ZM303.038 41.6719L307.012 38.9812L307.006 38.9713L306.999 38.9614L303.038 41.6719ZM305.827 43.9688L303.893 48.3623L303.904 48.367L303.915 48.3716L305.827 43.9688ZM314.358 43.9922L316.242 48.4071L316.266 48.3965L316.291 48.3857L314.358 43.9922ZM317.17 41.6719L313.209 38.9614L313.204 38.9679L317.17 41.6719ZM318.459 38.625L313.781 37.5503L313.776 37.5738L313.771 37.5973L318.459 38.625ZM318.858 13.1016V8.30156H314.058V13.1016H318.858ZM323.498 13.1016H328.298V8.30156H323.498V13.1016ZM318.698 33.9844C318.698 36.1762 318.453 37.907 318.054 39.2484L327.255 41.986C327.981 39.5461 328.298 36.8551 328.298 33.9844H318.698ZM318.047 39.2732C317.706 40.4427 317.192 41.2686 316.563 41.8896L323.309 48.7198C325.211 46.8408 326.51 44.5417 327.263 41.9612L318.047 39.2732ZM316.564 41.8885C315.88 42.5637 315.1 43.0466 314.173 43.3615L317.262 52.451C319.554 51.6722 321.586 50.4207 323.308 48.7209L316.564 41.8885ZM314.173 43.3615C313.171 43.702 311.838 43.9266 310.092 43.9266V53.5266C312.628 53.5266 315.045 53.2042 317.262 52.451L314.173 43.3615ZM310.092 43.9266C308.313 43.9266 306.973 43.6896 305.982 43.337L302.765 52.3817C305.024 53.1854 307.497 53.5266 310.092 53.5266V43.9266ZM305.982 43.337C304.976 42.979 304.245 42.498 303.69 41.9344L296.854 48.675C298.517 50.3614 300.521 51.5835 302.765 52.3817L305.982 43.337ZM303.687 41.9315C302.991 41.2268 302.461 40.3601 302.114 39.2413L292.945 42.0868C293.723 44.5931 295.022 46.82 296.857 48.6779L303.687 41.9315ZM302.125 39.2775C301.756 38.0529 301.509 36.3256 301.509 33.9844H291.909C291.909 36.9244 292.21 39.6502 292.934 42.0506L302.125 39.2775ZM301.509 33.9844V13.1016H291.909V33.9844H301.509ZM296.709 17.9016H301.35V8.30156H296.709V17.9016ZM296.55 13.1016V34.2188H306.15V13.1016H296.55ZM296.55 34.2188C296.55 36.2603 296.679 38.1626 297.046 39.7649L306.404 37.6258C306.271 37.0405 306.15 35.9584 306.15 34.2188H296.55ZM297.061 39.8281C297.457 41.4613 298.125 42.9922 299.076 44.3824L306.999 38.9614C306.731 38.5703 306.524 38.1168 306.389 37.5625L297.061 39.8281ZM299.063 44.3626C300.28 46.1605 301.932 47.4994 303.893 48.3623L307.76 39.5752C307.377 39.4069 307.17 39.2145 307.012 38.9812L299.063 44.3626ZM303.915 48.3716C305.849 49.2114 307.955 49.5422 310.092 49.5422V39.9422C308.917 39.9422 308.179 39.7574 307.738 39.5659L303.915 48.3716ZM310.092 49.5422C312.219 49.5422 314.32 49.2272 316.242 48.4071L312.474 39.5773C312.052 39.7572 311.309 39.9422 310.092 39.9422V49.5422ZM316.291 48.3857C318.263 47.5181 319.913 46.1693 321.136 44.3759L313.204 38.9679C313.021 39.2369 312.797 39.4351 312.425 39.5987L316.291 48.3857ZM321.132 44.3824C322.117 42.9423 322.777 41.3459 323.148 39.6527L313.771 37.5973C313.642 38.1853 313.442 38.6202 313.209 38.9614L321.132 44.3824ZM323.138 39.6997C323.511 38.0751 323.658 36.2585 323.658 34.3359H314.058C314.058 35.8196 313.939 36.8624 313.781 37.5503L323.138 39.6997ZM323.658 34.3359V13.1016H314.058V34.3359H323.658ZM318.858 17.9016H323.498V8.30156H318.858V17.9016ZM318.698 13.1016V33.9844H328.298V13.1016H318.698ZM363.656 48V52.8H374.117L367.295 44.8698L363.656 48ZM357.633 48L353.96 51.0899L355.398 52.8H357.633V48ZM345.961 34.125L349.634 31.0351L348.196 29.325H345.961V34.125ZM339.422 34.125V29.325H334.622V34.125H339.422ZM339.422 48V52.8H344.222V48H339.422ZM334.781 48H329.981V52.8H334.781V48ZM334.781 13.1016V8.30156H329.981V13.1016H334.781ZM349.828 13.5234L348.887 18.2302L348.912 18.2353L348.937 18.24L349.828 13.5234ZM353.625 14.9766L356.182 10.9146L356.176 10.9104L356.169 10.9062L353.625 14.9766ZM356.578 18L352.42 20.3987L352.439 20.4303L352.457 20.4617L356.578 18ZM355.758 28.9219L359.598 31.8019L359.604 31.7934L359.611 31.7849L355.758 28.9219ZM350.531 32.7422L348.798 28.2662L342.461 30.7206L346.892 35.8724L350.531 32.7422ZM352.266 20.2734L347.872 22.2066L347.896 22.2601L347.921 22.313L352.266 20.2734ZM350.531 18.3047L347.847 22.2842L347.876 22.3034L347.904 22.3221L350.531 18.3047ZM348.141 17.3672L347.184 22.0709L347.222 22.0787L347.261 22.0859L348.141 17.3672ZM339.422 17.0859V12.2859H334.622V17.0859H339.422ZM339.422 30.2578H334.622V35.0578H339.422V30.2578ZM347.953 29.8828L349.023 34.5621L349.054 34.5549L349.086 34.5472L347.953 29.8828ZM350.742 28.4297L353.989 31.965L354.003 31.952L354.017 31.9388L350.742 28.4297ZM352.289 26.1797L347.832 24.397L347.824 24.4184L347.815 24.4399L352.289 26.1797ZM363.656 43.2H357.633V52.8H363.656V43.2ZM361.306 44.9101L349.634 31.0351L342.288 37.2149L353.96 51.0899L361.306 44.9101ZM345.961 29.325H339.422V38.925H345.961V29.325ZM334.622 34.125V48H344.222V34.125H334.622ZM339.422 43.2H334.781V52.8H339.422V43.2ZM339.581 48V13.1016H329.981V48H339.581ZM334.781 17.9016H344.555V8.30156H334.781V17.9016ZM344.555 17.9016C346.481 17.9016 347.898 18.0325 348.887 18.2302L350.769 8.81665C348.946 8.45188 346.847 8.30156 344.555 8.30156V17.9016ZM348.937 18.24C349.804 18.4037 350.501 18.6842 351.081 19.047L356.169 10.9062C354.499 9.86263 352.665 9.17446 350.719 8.80684L348.937 18.24ZM351.068 19.0385C351.715 19.4463 352.132 19.8987 352.42 20.3987L360.736 15.6013C359.618 13.6638 358.066 12.1006 356.182 10.9146L351.068 19.0385ZM352.457 20.4617C352.609 20.7154 352.856 21.3261 352.856 22.5938H362.456C362.456 20.1426 361.985 17.6908 360.699 15.5383L352.457 20.4617ZM352.856 22.5938C352.856 24.2754 352.447 25.329 351.905 26.0589L359.611 31.7849C361.599 29.1085 362.456 25.9434 362.456 22.5938H352.856ZM351.918 26.0419C351.258 26.9218 350.289 27.6886 348.798 28.2662L352.265 37.2182C355.211 36.077 357.727 34.2969 359.598 31.8019L351.918 26.0419ZM346.892 35.8724L360.017 51.1302L367.295 44.8698L354.17 29.6119L346.892 35.8724ZM357.605 22.9219C357.605 21.3441 357.319 19.7437 356.611 18.2339L347.921 22.313C347.931 22.3344 348.005 22.4996 348.005 22.9219H357.605ZM356.659 18.3403C355.891 16.595 354.639 15.2555 353.158 14.2872L347.904 22.3221C347.988 22.377 347.998 22.3976 347.973 22.3683C347.96 22.3542 347.943 22.3321 347.923 22.3021C347.904 22.272 347.887 22.2395 347.872 22.2066L356.659 18.3403ZM353.215 14.3251C351.92 13.4516 350.487 12.922 349.02 12.6485L347.261 22.0859C347.638 22.1561 347.799 22.2515 347.847 22.2842L353.215 14.3251ZM349.097 12.6635C347.777 12.395 346.356 12.2859 344.883 12.2859V21.8859C345.909 21.8859 346.66 21.9644 347.184 22.0709L349.097 12.6635ZM344.883 12.2859H339.422V21.8859H344.883V12.2859ZM334.622 17.0859V30.2578H344.222V17.0859H334.622ZM339.422 35.0578H344.109V25.4578H339.422V35.0578ZM344.109 35.0578C345.834 35.0578 347.49 34.9126 349.023 34.5621L346.884 25.2035C346.229 25.3531 345.322 25.4578 344.109 25.4578V35.0578ZM349.086 34.5472C350.901 34.1063 352.577 33.2621 353.989 31.965L347.495 24.8943C347.377 25.0035 347.192 25.128 346.82 25.2184L349.086 34.5472ZM354.017 31.9388C355.214 30.8217 356.157 29.4771 356.763 27.9194L347.815 24.4399C347.765 24.5697 347.676 24.7252 347.467 24.9206L354.017 31.9388ZM356.746 27.9624C357.39 26.352 357.605 24.6094 357.605 22.9219H348.005C348.005 23.8593 347.876 24.2886 347.832 24.397L356.746 27.9624ZM411.839 27.9609L407.401 26.1333L407.395 26.1467L407.39 26.16L411.839 27.9609ZM405.323 34.1016L406.957 38.6151L406.976 38.6082L406.995 38.6012L405.323 34.1016ZM394.472 34.9922V30.1922H389.672V34.9922H394.472ZM394.472 48V52.8H399.272V48H394.472ZM389.831 48H385.031V52.8H389.831V48ZM389.831 13.1016V8.30156H385.031V13.1016H389.831ZM404.62 13.6406L403.468 18.3002L403.492 18.3061L403.515 18.3117L404.62 13.6406ZM408.487 15.2812L411.161 11.2946L411.15 11.2874L408.487 15.2812ZM411.558 18.6094L407.336 20.8939L407.347 20.913L407.357 20.9321L411.558 18.6094ZM405.277 18.4453L407.905 14.4291L407.893 14.4211L407.881 14.4131L405.277 18.4453ZM402.698 17.4141L401.625 22.0924L401.669 22.1026L401.713 22.1119L402.698 17.4141ZM394.472 17.0859V12.2859H389.672V17.0859H394.472ZM394.472 31.0312H389.672V35.8312H394.472V31.0312ZM402.956 30.5391L404.25 35.1613L404.279 35.1533L404.307 35.145L402.956 30.5391ZM405.816 28.9219L409.21 32.316L409.228 32.2981L409.245 32.2801L405.816 28.9219ZM407.362 26.5547L402.872 24.86L402.858 24.8973L402.844 24.9349L407.362 26.5547ZM407.859 23.6484C407.859 24.6171 407.691 25.4284 407.401 26.1333L416.277 29.7885C417.081 27.8373 417.459 25.7736 417.459 23.6484H407.859ZM407.39 26.16C407.092 26.8965 406.693 27.4903 406.195 27.9887L412.983 34.7769C414.422 33.3379 415.524 31.6503 416.288 29.7619L407.39 26.16ZM406.195 27.9887C405.494 28.6896 404.665 29.2258 403.652 29.6019L406.995 38.6012C409.263 37.7586 411.278 36.4823 412.983 34.7769L406.195 27.9887ZM403.69 29.588C402.747 29.9294 401.276 30.1922 399.112 30.1922V39.7922C401.949 39.7922 404.619 39.4612 406.957 38.6151L403.69 29.588ZM399.112 30.1922H394.472V39.7922H399.112V30.1922ZM389.672 34.9922V48H399.272V34.9922H389.672ZM394.472 43.2H389.831V52.8H394.472V43.2ZM394.631 48V13.1016H385.031V48H394.631ZM389.831 17.9016H399.3V8.30156H389.831V17.9016ZM399.3 17.9016C401.147 17.9016 402.508 18.0628 403.468 18.3002L405.773 8.98101C403.826 8.49966 401.641 8.30156 399.3 8.30156V17.9016ZM403.515 18.3117C404.471 18.5378 405.222 18.873 405.825 19.2751L411.15 11.2874C409.503 10.1895 407.676 9.43098 405.725 8.96954L403.515 18.3117ZM405.814 19.2679C406.535 19.7513 407.01 20.2906 407.336 20.8939L415.779 16.3248C414.668 14.2719 413.096 12.5924 411.161 11.2946L405.814 19.2679ZM407.357 20.9321C407.588 21.3489 407.859 22.1651 407.859 23.6484H417.459C417.459 21.0692 416.997 18.5261 415.758 16.2867L407.357 20.9321ZM412.631 23.7656C412.631 22.0057 412.322 20.229 411.536 18.5702L402.86 22.6798C402.918 22.8022 403.031 23.1193 403.031 23.7656H412.631ZM411.536 18.5702C410.72 16.8463 409.471 15.4542 407.905 14.4291L402.648 22.4615C402.8 22.5614 402.833 22.6225 402.86 22.6798L411.536 18.5702ZM407.881 14.4131C406.585 13.5766 405.166 13.027 403.683 12.7162L401.713 22.1119C402.169 22.2074 402.468 22.3453 402.672 22.4775L407.881 14.4131ZM403.772 12.7357C402.339 12.4067 400.735 12.2859 399.066 12.2859V21.8859C400.334 21.8859 401.152 21.984 401.625 22.0924L403.772 12.7357ZM399.066 12.2859H394.472V21.8859H399.066V12.2859ZM389.672 17.0859V31.0312H399.272V17.0859H389.672ZM394.472 35.8312H398.386V26.2313H394.472V35.8312ZM398.386 35.8312C400.49 35.8312 402.495 35.6529 404.25 35.1613L401.662 25.9168C401.074 26.0815 400.032 26.2313 398.386 26.2313V35.8312ZM404.307 35.145C406.115 34.6148 407.814 33.7116 409.21 32.316L402.422 25.5278C402.348 25.6009 402.141 25.7758 401.605 25.9331L404.307 35.145ZM409.245 32.2801C410.371 31.13 411.31 29.7673 411.881 28.1745L402.844 24.9349C402.821 24.9983 402.729 25.2138 402.386 25.5637L409.245 32.2801ZM411.853 28.2494C412.401 26.7982 412.631 25.2819 412.631 23.7656H403.031C403.031 24.3119 402.949 24.6549 402.872 24.86L411.853 28.2494ZM450.075 48V52.8H460.536L453.714 44.8698L450.075 48ZM444.052 48L440.378 51.0899L441.817 52.8H444.052V48ZM432.38 34.125L436.053 31.0351L434.614 29.325H432.38V34.125ZM425.841 34.125V29.325H421.041V34.125H425.841ZM425.841 48V52.8H430.641V48H425.841ZM421.2 48H416.4V52.8H421.2V48ZM421.2 13.1016V8.30156H416.4V13.1016H421.2ZM436.247 13.5234L435.306 18.2302L435.331 18.2353L435.356 18.24L436.247 13.5234ZM440.044 14.9766L442.601 10.9146L442.595 10.9104L442.588 10.9062L440.044 14.9766ZM442.997 18L438.839 20.3987L438.857 20.4303L438.876 20.4617L442.997 18ZM442.177 28.9219L446.017 31.8019L446.023 31.7934L446.029 31.7849L442.177 28.9219ZM436.95 32.7422L435.216 28.2662L428.879 30.7206L433.311 35.8724L436.95 32.7422ZM438.684 20.2734L434.291 22.2066L434.314 22.2601L434.339 22.313L438.684 20.2734ZM436.95 18.3047L434.266 22.2842L434.295 22.3034L434.323 22.3221L436.95 18.3047ZM434.559 17.3672L433.603 22.0709L433.641 22.0787L433.68 22.0859L434.559 17.3672ZM425.841 17.0859V12.2859H421.041V17.0859H425.841ZM425.841 30.2578H421.041V35.0578H425.841V30.2578ZM434.372 29.8828L435.441 34.5621L435.473 34.5549L435.505 34.5472L434.372 29.8828ZM437.161 28.4297L440.408 31.965L440.422 31.952L440.436 31.9388L437.161 28.4297ZM438.708 26.1797L434.251 24.397L434.243 24.4184L434.234 24.4399L438.708 26.1797ZM450.075 43.2H444.052V52.8H450.075V43.2ZM447.725 44.9101L436.053 31.0351L428.707 37.2149L440.378 51.0899L447.725 44.9101ZM432.38 29.325H425.841V38.925H432.38V29.325ZM421.041 34.125V48H430.641V34.125H421.041ZM425.841 43.2H421.2V52.8H425.841V43.2ZM426 48V13.1016H416.4V48H426ZM421.2 17.9016H430.973V8.30156H421.2V17.9016ZM430.973 17.9016C432.9 17.9016 434.317 18.0325 435.306 18.2302L437.188 8.81665C435.364 8.45188 433.266 8.30156 430.973 8.30156V17.9016ZM435.356 18.24C436.222 18.4037 436.919 18.6842 437.5 19.047L442.588 10.9062C440.918 9.86263 439.084 9.17446 437.138 8.80684L435.356 18.24ZM437.486 19.0385C438.134 19.4463 438.551 19.8987 438.839 20.3987L447.155 15.6013C446.037 13.6638 444.485 12.1006 442.601 10.9146L437.486 19.0385ZM438.876 20.4617C439.028 20.7154 439.275 21.3261 439.275 22.5938H448.875C448.875 20.1426 448.403 17.6908 447.118 15.5383L438.876 20.4617ZM439.275 22.5938C439.275 24.2754 438.866 25.329 438.324 26.0589L446.029 31.7849C448.018 29.1085 448.875 25.9434 448.875 22.5938H439.275ZM438.337 26.0419C437.677 26.9218 436.708 27.6886 435.216 28.2662L438.684 37.2182C441.63 36.077 444.145 34.2969 446.017 31.8019L438.337 26.0419ZM433.311 35.8724L446.436 51.1302L453.714 44.8698L440.589 29.6119L433.311 35.8724ZM444.023 22.9219C444.023 21.3441 443.738 19.7437 443.03 18.2339L434.339 22.313C434.349 22.3344 434.423 22.4996 434.423 22.9219H444.023ZM443.078 18.3403C442.31 16.595 441.058 15.2555 439.577 14.2872L434.323 22.3221C434.407 22.377 434.417 22.3976 434.391 22.3683C434.379 22.3542 434.361 22.3321 434.342 22.3021C434.323 22.272 434.305 22.2395 434.291 22.2066L443.078 18.3403ZM439.634 14.3251C438.339 13.4516 436.906 12.922 435.439 12.6485L433.68 22.0859C434.057 22.1561 434.218 22.2515 434.266 22.2842L439.634 14.3251ZM435.516 12.6635C434.196 12.395 432.775 12.2859 431.302 12.2859V21.8859C432.328 21.8859 433.079 21.9644 433.603 22.0709L435.516 12.6635ZM431.302 12.2859H425.841V21.8859H431.302V12.2859ZM421.041 17.0859V30.2578H430.641V17.0859H421.041ZM425.841 35.0578H430.528V25.4578H425.841V35.0578ZM430.528 35.0578C432.253 35.0578 433.908 34.9126 435.441 34.5621L433.302 25.2035C432.648 25.3531 431.741 25.4578 430.528 25.4578V35.0578ZM435.505 34.5472C437.32 34.1063 438.995 33.2621 440.408 31.965L433.914 24.8943C433.795 25.0035 433.611 25.128 433.239 25.2184L435.505 34.5472ZM440.436 31.9388C441.633 30.8217 442.576 29.4771 443.181 27.9194L434.234 24.4399C434.184 24.5697 434.095 24.7252 433.886 24.9206L440.436 31.9388ZM443.165 27.9624C443.809 26.352 444.023 24.6094 444.023 22.9219H434.423C434.423 23.8593 434.294 24.2886 434.251 24.397L443.165 27.9624ZM482.991 17.1094L486.541 13.8788L486.534 13.8715L486.527 13.8642L482.991 17.1094ZM486.248 22.8516L481.692 24.36L481.696 24.3742L481.701 24.3883L486.248 22.8516ZM486.225 38.2969L481.684 36.7417L481.681 36.7509L481.678 36.7602L486.225 38.2969ZM482.991 43.9688L479.454 40.7236L479.448 40.73L479.442 40.7364L482.991 43.9688ZM477.881 47.5312L476.08 43.0819L476.068 43.0869L477.881 47.5312ZM464.475 47.5078L462.668 51.9549L462.68 51.9597L464.475 47.5078ZM456.108 38.2734L451.554 39.7913L451.559 39.8055L451.564 39.8197L456.108 38.2734ZM456.108 22.9219L460.661 24.4398L460.665 24.4303L456.108 22.9219ZM459.389 17.1094L455.818 13.9024L455.809 13.9118L459.389 17.1094ZM464.498 13.5938L462.728 9.13236L462.716 9.13706L464.498 13.5938ZM477.905 13.6172L476.056 18.0469L476.077 18.0557L476.098 18.0642L477.905 13.6172ZM479.522 20.0859L475.815 23.1357L475.82 23.1415L475.825 23.1472L479.522 20.0859ZM462.834 20.0859L459.128 17.0362L459.126 17.0387L462.834 20.0859ZM462.905 41.0859L459.24 44.1865L459.245 44.1923L459.25 44.1981L462.905 41.0859ZM479.475 41.0859L475.811 37.9854L475.809 37.9875L479.475 41.0859ZM479.441 20.34C480.355 21.3446 481.125 22.6498 481.692 24.36L490.805 21.3431C489.871 18.522 488.47 15.9992 486.541 13.8788L479.441 20.34ZM481.701 24.3883C482.27 26.0703 482.597 28.1077 482.597 30.5625H492.197C492.197 27.2673 491.759 24.164 490.796 21.3149L481.701 24.3883ZM482.597 30.5625C482.597 33.0073 482.264 35.0467 481.684 36.7417L490.766 39.852C491.748 36.9845 492.197 33.8677 492.197 30.5625H482.597ZM481.678 36.7602C481.092 38.4943 480.325 39.7746 479.454 40.7236L486.527 47.2139C488.438 45.1317 489.827 42.6307 490.772 39.8336L481.678 36.7602ZM479.442 40.7364C478.486 41.7859 477.379 42.5561 476.08 43.0819L479.682 51.9806C482.321 50.9126 484.62 49.3078 486.539 47.2011L479.442 40.7364ZM476.068 43.0869C474.79 43.6083 473.189 43.9266 471.178 43.9266V53.5266C474.198 53.5266 477.066 53.0479 479.695 51.9756L476.068 43.0869ZM471.178 43.9266C469.261 43.9266 467.646 43.6107 466.27 43.0559L462.68 51.9597C465.335 53.0299 468.189 53.5266 471.178 53.5266V43.9266ZM466.282 43.0608C464.925 42.5096 463.824 41.7377 462.917 40.7399L455.814 47.1976C457.719 49.2936 460.025 50.8811 462.668 51.9549L466.282 43.0608ZM462.917 40.7399C462.01 39.7423 461.235 38.4392 460.652 36.7272L451.564 39.8197C452.512 42.6076 453.908 45.1015 455.814 47.1976L462.917 40.7399ZM460.661 36.7555C460.106 35.0885 459.783 33.0461 459.783 30.5625H450.183C450.183 33.8602 450.61 36.9583 451.554 39.7913L460.661 36.7555ZM459.783 30.5625C459.783 28.1351 460.103 26.1141 460.661 24.4398L451.554 21.404C450.612 24.2297 450.183 27.3024 450.183 30.5625H459.783ZM460.665 24.4303C461.23 22.7223 462.014 21.3765 462.969 20.3069L455.809 13.9118C453.889 16.061 452.486 18.5902 451.551 21.4134L460.665 24.4303ZM462.961 20.3164C463.812 19.3678 464.89 18.6069 466.281 18.0504L462.716 9.13706C460.044 10.2056 457.716 11.7884 455.818 13.9024L462.961 20.3164ZM466.269 18.0551C467.702 17.4862 469.322 17.175 471.178 17.175V7.575C468.222 7.575 465.388 8.07625 462.728 9.13238L466.269 18.0551ZM471.178 17.175C473.146 17.175 474.745 17.4997 476.056 18.0469L479.753 9.18745C477.096 8.07847 474.211 7.575 471.178 7.575V17.175ZM476.098 18.0642C477.473 18.6227 478.568 19.3886 479.454 20.3545L486.527 13.8642C484.632 11.7989 482.337 10.2366 479.711 9.17015L476.098 18.0642ZM487.369 30.5625C487.369 25.3775 486.212 20.6387 483.219 17.0246L475.825 23.1472C476.895 24.4394 477.769 26.685 477.769 30.5625H487.369ZM483.229 17.0362C480.187 13.3397 475.99 11.5828 471.202 11.5828V21.1828C473.445 21.1828 474.794 21.8947 475.815 23.1357L483.229 17.0362ZM471.202 11.5828C466.397 11.5828 462.178 13.3289 459.128 17.0362L466.541 23.1357C467.553 21.9055 468.912 21.1828 471.202 21.1828V11.5828ZM459.126 17.0387C456.157 20.6519 455.011 25.385 455.011 30.5625H464.611C464.611 26.6775 465.481 24.4262 466.543 23.1332L459.126 17.0387ZM455.011 30.5625C455.011 35.7923 456.183 40.5735 459.24 44.1865L466.569 37.9854C465.501 36.7234 464.611 34.4889 464.611 30.5625H455.011ZM459.25 44.1981C462.314 47.7957 466.47 49.5187 471.202 49.5187V39.9188C468.996 39.9188 467.62 39.2199 466.559 37.9738L459.25 44.1981ZM471.202 49.5187C475.933 49.5187 480.09 47.795 483.141 44.1843L475.809 37.9875C474.767 39.2207 473.408 39.9188 471.202 39.9188V49.5187ZM483.139 44.1865C486.196 40.5735 487.369 35.7923 487.369 30.5625H477.769C477.769 34.4889 476.879 36.7234 475.811 37.9854L483.139 44.1865ZM519.445 17.2266V22.0266H524.245V17.2266H519.445ZM501.797 17.2266V12.4266H496.997V17.2266H501.797ZM501.797 27.0703H496.997V31.8703H501.797V27.0703ZM516.961 27.0703H521.761V22.2703H516.961V27.0703ZM516.961 31.1953V35.9953H521.761V31.1953H516.961ZM501.797 31.1953V26.3953H496.997V31.1953H501.797ZM501.797 48V52.8H506.597V48H501.797ZM497.156 48H492.356V52.8H497.156V48ZM497.156 13.1016V8.30156H492.356V13.1016H497.156ZM519.445 13.1016H524.245V8.30156H519.445V13.1016ZM519.445 12.4266H501.797V22.0266H519.445V12.4266ZM496.997 17.2266V27.0703H506.597V17.2266H496.997ZM501.797 31.8703H516.961V22.2703H501.797V31.8703ZM512.161 27.0703V31.1953H521.761V27.0703H512.161ZM516.961 26.3953H501.797V35.9953H516.961V26.3953ZM496.997 31.1953V48H506.597V31.1953H496.997ZM501.797 43.2H497.156V52.8H501.797V43.2ZM501.956 48V13.1016H492.356V48H501.956ZM497.156 17.9016H519.445V8.30156H497.156V17.9016ZM514.645 13.1016V17.2266H524.245V13.1016H514.645ZM539.47 48V52.8H544.27V48H539.47ZM525.689 48H520.889V52.8H525.689V48ZM525.689 44.4375V39.6375H520.889V44.4375H525.689ZM530.259 44.4375V49.2375H535.059V44.4375H530.259ZM530.259 16.6641H535.059V11.8641H530.259V16.6641ZM525.689 16.6641H520.889V21.4641H525.689V16.6641ZM525.689 13.1016V8.30156H520.889V13.1016H525.689ZM539.47 13.1016H544.27V8.30156H539.47V13.1016ZM539.47 16.6641V21.4641H544.27V16.6641H539.47ZM534.9 16.6641V11.8641H530.1V16.6641H534.9ZM534.9 44.4375H530.1V49.2375H534.9V44.4375ZM539.47 44.4375H544.27V39.6375H539.47V44.4375ZM539.47 43.2H525.689V52.8H539.47V43.2ZM530.489 48V44.4375H520.889V48H530.489ZM525.689 49.2375H530.259V39.6375H525.689V49.2375ZM535.059 44.4375V16.6641H525.459V44.4375H535.059ZM530.259 11.8641H525.689V21.4641H530.259V11.8641ZM530.489 16.6641V13.1016H520.889V16.6641H530.489ZM525.689 17.9016H539.47V8.30156H525.689V17.9016ZM534.67 13.1016V16.6641H544.27V13.1016H534.67ZM539.47 11.8641H534.9V21.4641H539.47V11.8641ZM530.1 16.6641V44.4375H539.7V16.6641H530.1ZM534.9 49.2375H539.47V39.6375H534.9V49.2375ZM534.67 44.4375V48H544.27V44.4375H534.67ZM571.847 48V52.8H576.647V48H571.847ZM549.769 48H544.969V52.8H549.769V48ZM549.769 13.1016V8.30156H544.969V13.1016H549.769ZM554.409 13.1016H559.209V8.30156H554.409V13.1016ZM554.409 43.875H549.609V48.675H554.409V43.875ZM571.847 43.875H576.647V39.075H571.847V43.875ZM571.847 43.2H549.769V52.8H571.847V43.2ZM554.569 48V13.1016H544.969V48H554.569ZM549.769 17.9016H554.409V8.30156H549.769V17.9016ZM549.609 13.1016V43.875H559.209V13.1016H549.609ZM554.409 48.675H571.847V39.075H554.409V48.675ZM567.047 43.875V48H576.647V43.875H567.047ZM601.88 48V52.8H606.68V48H601.88ZM578.888 48H574.088V52.8H578.888V48ZM578.888 13.1016V8.30156H574.088V13.1016H578.888ZM601.88 13.1016H606.68V8.30156H601.88V13.1016ZM601.88 17.2266V22.0266H606.68V17.2266H601.88ZM583.528 17.2266V12.4266H578.728V17.2266H583.528ZM583.528 26.7891H578.728V31.5891H583.528V26.7891ZM601.88 26.7891H606.68V21.9891H601.88V26.7891ZM601.88 30.9141V35.7141H606.68V30.9141H601.88ZM583.528 30.9141V26.1141H578.728V30.9141H583.528ZM583.528 43.875H578.728V48.675H583.528V43.875ZM601.88 43.875H606.68V39.075H601.88V43.875ZM601.88 43.2H578.888V52.8H601.88V43.2ZM583.688 48V13.1016H574.088V48H583.688ZM578.888 17.9016H601.88V8.30156H578.888V17.9016ZM597.08 13.1016V17.2266H606.68V13.1016H597.08ZM601.88 12.4266H583.528V22.0266H601.88V12.4266ZM578.728 17.2266V26.7891H588.328V17.2266H578.728ZM583.528 31.5891H601.88V21.9891H583.528V31.5891ZM597.08 26.7891V30.9141H606.68V26.7891H597.08ZM601.88 26.1141H583.528V35.7141H601.88V26.1141ZM578.728 30.9141V43.875H588.328V30.9141H578.728ZM583.528 48.675H601.88V39.075H583.528V48.675ZM597.08 43.875V48H606.68V43.875H597.08Z" fill="white" mask="url(#path-1-outside-1_274_754)"/>
</mask>
<g mask="url(#mask0_274_754)">
<rect x="-9" width="628" height="75" fill="url(#paint0_linear_274_754)"/>
</g>
<defs>
<linearGradient id="paint0_linear_274_754" x1="305" y1="2.6132e-08" x2="305.024" y2="106.62" gradientUnits="userSpaceOnUse">
<stop stop-color="#FFEFEF"/>
<stop offset="1" stop-color="#4B4A4A"/>
</linearGradient>
</defs>
</svg>
