<svg width="321" height="318" viewBox="0 0 321 318" fill="none" xmlns="http://www.w3.org/2000/svg">
<g opacity="0.6" clip-path="url(#clip0_326_891)">
<path d="M130.498 151.652V313.968" stroke="#2A272D" stroke-width="1.9882" stroke-miterlimit="10"/>
<path d="M19.3877 151.652V313.968" stroke="#2A272D" stroke-width="1.9882" stroke-miterlimit="10"/>
<path d="M196.193 201.774C196.193 201.774 174.872 196.666 171.662 211.333C168.89 223.918 197.889 223.436 197.889 223.436L261.651 223.841C261.651 223.841 285.672 226.77 297.545 197.495C309.418 168.22 320.854 91.5529 320.854 91.5529C320.854 91.5529 322.568 81.0107 314.252 79.4689C304.476 77.6572 302.561 99.9751 302.561 99.9751C302.561 99.9751 287.787 194.604 266.339 199.23C263.037 199.943 260.411 202.583 257.037 202.544L196.193 201.774Z" fill="#FFEEE3"/>
<path d="M139.526 125.333L119.39 123.869C117.748 123.753 116.18 124.543 115.25 125.95L103.996 143.931L113.572 144.413L118.97 135.644C118.97 135.644 134.528 139.749 140.273 135.644L139.526 125.333Z" fill="#F2C09E"/>
<path d="M220.633 67.0781L193.731 119.905L137.829 121.793V141.22L196.868 143.957C204.674 144.323 212.079 140.372 216.456 133.53L243.322 82.5541L220.633 67.0781Z" fill="url(#paint0_linear_326_891)"/>
<path d="M137.829 121.78V141.207L144.067 141.496V121.568L137.829 121.78Z" fill="#F7E5DA"/>
<path d="M167.122 278.371L163.966 301.73L148.062 300.689L150.342 276.579L167.122 278.371Z" fill="#FCC9A7"/>
<path d="M167.522 299.359C167.176 298.261 165.936 297.818 165.042 298.492C163.291 299.803 160.209 301.364 155.777 300.766C151.162 300.15 149.539 297.548 148.974 295.717C148.682 294.753 147.697 294.233 146.803 294.599L118.132 306.471C116.381 307.184 114.995 308.61 114.247 310.422C113.554 312.118 114.703 314.026 116.472 314.065L165.024 314.816C166.939 314.855 168.471 313.178 168.398 311.154L168.051 301.248C168.051 301.075 168.015 300.921 167.96 300.766L167.522 299.359Z" fill="#1F252A"/>
<path d="M215.436 62.5459L210.876 70.2743C210.584 71.0066 210.457 72.7797 211.715 73.435L213.484 74.7841L217.278 68.6554L215.436 62.5459Z" fill="#FFEEE3"/>
<path d="M223.935 70.7187L225.376 69.9863C230.118 67.5387 232.087 61.487 229.771 56.4761L214.378 23.1729L197.288 31.9998L215.071 69.2925C216.968 73.4361 220.013 72.7423 223.935 70.7187Z" fill="#FCC9A7"/>
<path d="M184.539 38.5761C189.555 49.4074 201.939 53.9172 212.189 48.6172C222.439 43.3172 226.707 30.2503 221.691 19.3997C216.676 8.56839 204.31 4.05857 194.042 9.35857C183.773 14.6586 179.524 27.7448 184.539 38.5761Z" fill="#FCC9A7"/>
<path d="M209.489 60.1155C214.359 57.6101 216.383 51.385 213.994 46.2392L205.312 27.4482L184.374 38.2602L191.451 53.5821C194.734 60.6359 202.814 63.5846 209.489 60.1155Z" fill="#FCC9A7"/>
<path d="M187.092 42.6855L185.961 51.0885C185.87 52.4183 187.202 53.2855 188.369 52.6881L193.512 51.2041L187.092 42.6855Z" fill="#FCC9A7"/>
<path d="M205.222 38.4793C205.222 38.4793 197.981 38.9804 196.796 27.1663C196.796 27.1663 184.211 35.6463 179.086 32.2735C179.086 32.2735 177.517 -1.14533 203.653 0.0303063C229.789 1.20594 231.832 31.0208 231.832 31.0208L217.168 45.0128L205.222 38.4793Z" fill="#1C2226"/>
<path d="M204.182 38.963C205.55 41.9503 208.961 43.1838 211.788 41.719C214.597 40.2543 215.782 36.6696 214.396 33.6823C213.028 30.695 209.618 29.4616 206.791 30.9263C203.982 32.391 202.815 35.9758 204.182 38.963Z" fill="#FCC9A7"/>
<path d="M220.141 34.5254L224.025 44.1039C224.025 44.1039 215.49 51.3312 211.185 42.0225L217.387 40.1723L220.141 34.5254Z" fill="#1C2226"/>
<path d="M196.796 27.1616C196.796 27.1616 179.743 41.0765 173.013 29.4165C167.651 20.1078 173.615 14.0755 182.223 15.5787C185.944 16.234 187.786 13.5744 190.704 11.4736L196.796 27.1616Z" fill="#1C2226"/>
<path d="M212.116 79.4595C212.116 79.4595 212.499 70.9602 215.052 68.0115C217.606 65.0628 231.212 56.9297 231.212 56.9297C231.212 56.9297 250.782 62.9235 262.801 86.5519C272.158 104.957 280.967 151.539 280.967 151.539L224.5 160.193C219.63 125.386 210.511 109.525 212.116 79.4595Z" fill="url(#paint1_linear_326_891)"/>
<path d="M230.264 55.2855L232.617 56.4034C233.456 56.8081 233.638 58.003 232.945 58.6583L218.026 72.6888C217.424 73.267 216.475 73.0935 216.056 72.3612L214.378 69.2968C214.068 68.7186 214.196 67.9863 214.688 67.5623L228.951 55.4975C229.315 55.1506 229.826 55.0735 230.264 55.2855Z" fill="#FFEEE3"/>
<path d="M145.746 128.494L125.61 127.03C123.968 126.914 122.4 127.704 121.47 129.111L111.147 144.626L120.795 145.936L125.19 138.786C125.19 138.786 140.748 142.891 146.494 138.786L145.746 128.494Z" fill="#FCC9A7"/>
<path d="M232.069 71.0078L201.683 125.183L144.049 126.86V144.379L206.243 147.251C212.079 147.52 217.642 144.572 220.925 139.445L254.758 86.4836L232.069 71.0078Z" fill="url(#paint2_linear_326_891)"/>
<path d="M144.049 126.854V144.353L150.287 144.642V126.854H144.049Z" fill="#FFEEE3"/>
<path d="M280.966 151.532L169.893 168.55C161.394 169.861 154.828 177.126 154.007 186.165L145.727 286.133L170.531 287.829L182.459 201.179L252.204 203.087C271.136 203.087 285.654 185.317 282.9 165.524L280.966 151.532Z" fill="#0D1215"/>
<path d="M84.0982 143.958H142.681V147.967H84.0982V143.958Z" fill="#2A272D"/>
<path d="M84.0802 147.969L65.1302 89.476L69.1062 88.4736L87.6914 144.654L84.0802 147.969Z" fill="#2A272D"/>
<path d="M210.42 59.5903C210.42 59.5903 215.691 56.2946 215.691 49.3564C215.691 49.3564 218.974 56.8728 212.28 63.4834L210.42 59.5903Z" fill="#F2C09E"/>
<path d="M296.888 317.744C296.013 317.744 295.21 317.108 294.973 316.163L265.974 195.342C263.566 185.34 255.085 178.344 245.309 178.344C235.825 178.344 227.399 185.07 224.809 194.706C214.668 232.462 191.068 314.833 190.83 315.662C190.52 316.761 189.408 317.397 188.368 317.05C187.329 316.722 186.727 315.546 187.055 314.448C187.292 313.619 210.893 231.286 221.015 193.569C224.079 182.141 234.074 174.162 245.328 174.162C256.909 174.162 266.977 182.449 269.822 194.302L298.821 315.142C299.095 316.26 298.457 317.397 297.399 317.686C297.216 317.724 297.052 317.744 296.888 317.744Z" fill="#1F252A"/>
<path d="M220.906 139.435L238.324 112.203" stroke="url(#paint3_linear_326_891)" stroke-width="0.7847" stroke-miterlimit="10" stroke-linecap="round" stroke-linejoin="round"/>
<path d="M0.200531 147.963H151.964V155.19H0.200531V147.963Z" fill="#FFEEE3"/>
<path d="M130.498 172.747H19.3878" stroke="#2A272D" stroke-width="1.9882" stroke-miterlimit="10"/>
<path d="M210.693 107.777L227.381 79.3496" stroke="url(#paint4_linear_326_891)" stroke-width="0.7847" stroke-miterlimit="10" stroke-linecap="round" stroke-linejoin="round"/>
</g>
<defs>
<linearGradient id="paint0_linear_326_891" x1="203.388" y1="139.581" x2="201.214" y2="71.4073" gradientUnits="userSpaceOnUse">
<stop offset="0.296875" stop-color="#C018CE"/>
<stop offset="1" stop-color="#0A7ACC"/>
</linearGradient>
<linearGradient id="paint1_linear_326_891" x1="254.833" y1="154.286" x2="248.861" y2="63.0406" gradientUnits="userSpaceOnUse">
<stop offset="0.296875" stop-color="#C018CE"/>
<stop offset="1" stop-color="#0A7ACC"/>
</linearGradient>
<linearGradient id="paint2_linear_326_891" x1="212.85" y1="142.905" x2="210.812" y2="75.2934" gradientUnits="userSpaceOnUse">
<stop offset="0.296875" stop-color="#C018CE"/>
<stop offset="1" stop-color="#0A7ACC"/>
</linearGradient>
<linearGradient id="paint3_linear_326_891" x1="231.731" y1="137.878" x2="230.085" y2="113.824" gradientUnits="userSpaceOnUse">
<stop offset="0.296875" stop-color="#C018CE"/>
<stop offset="1" stop-color="#0A7ACC"/>
</linearGradient>
<linearGradient id="paint4_linear_326_891" x1="221.064" y1="106.151" x2="219.194" y2="81.0636" gradientUnits="userSpaceOnUse">
<stop offset="0.296875" stop-color="#C018CE"/>
<stop offset="1" stop-color="#0A7ACC"/>
</linearGradient>
<clipPath id="clip0_326_891">
<rect width="321" height="318" fill="white" transform="matrix(-1 0 0 1 321 0)"/>
</clipPath>
</defs>
</svg>
