<svg width="28" height="28" viewBox="0 0 28 28" fill="none" xmlns="http://www.w3.org/2000/svg">
<path d="M19.2401 2.49609H8.04006C4.94727 2.49609 2.44006 5.0033 2.44006 8.09609V19.2961C2.44006 22.3889 4.94727 24.8961 8.04006 24.8961H19.2401C22.3329 24.8961 24.8401 22.3889 24.8401 19.2961V8.09609C24.8401 5.0033 22.3329 2.49609 19.2401 2.49609Z" stroke="#6681B9" stroke-width="2.24" stroke-linecap="round" stroke-linejoin="round"/>
<path d="M18.12 12.9899C18.2583 13.922 18.0991 14.8739 17.6651 15.7104C17.2311 16.5468 16.5444 17.225 15.7027 17.6487C14.861 18.0723 13.9071 18.2198 12.9768 18.0701C12.0464 17.9204 11.187 17.4811 10.5207 16.8148C9.85435 16.1485 9.4151 15.2891 9.2654 14.3587C9.11569 13.4284 9.26316 12.4745 9.68681 11.6328C10.1105 10.7911 10.7887 10.1044 11.6251 9.67045C12.4616 9.23645 13.4135 9.07723 14.3456 9.21545C15.2964 9.35645 16.1767 9.79949 16.8563 10.4792C17.536 11.1588 17.9791 12.0391 18.12 12.9899Z" stroke="#6681B9" stroke-width="2.24" stroke-linecap="round" stroke-linejoin="round"/>
<path d="M19.8 7.53613H19.8112" stroke="#6681B9" stroke-width="2.24" stroke-linecap="round" stroke-linejoin="round"/>
</svg>
