<svg width="28" height="28" viewBox="0 0 28 28" fill="none" xmlns="http://www.w3.org/2000/svg">
<path d="M18.88 9.21582C20.6623 9.21582 22.3715 9.92382 23.6318 11.1841C24.892 12.4443 25.6 14.1536 25.6 15.9358V23.7758H21.12V15.9358C21.12 15.3417 20.884 14.772 20.464 14.3519C20.0439 13.9318 19.4741 13.6958 18.88 13.6958C18.2859 13.6958 17.7162 13.9318 17.2961 14.3519C16.876 14.772 16.64 15.3417 16.64 15.9358V23.7758H12.16V15.9358C12.16 14.1536 12.868 12.4443 14.1283 11.1841C15.3885 9.92382 17.0978 9.21582 18.88 9.21582Z" stroke="#6681B9" stroke-width="2.24" stroke-linecap="round" stroke-linejoin="round"/>
<path d="M7.68007 10.3359H3.20007V23.7759H7.68007V10.3359Z" stroke="#6681B9" stroke-width="2.24" stroke-linecap="round" stroke-linejoin="round"/>
<path d="M5.44007 6.97609C6.67719 6.97609 7.68007 5.97321 7.68007 4.73609C7.68007 3.49898 6.67719 2.49609 5.44007 2.49609C4.20296 2.49609 3.20007 3.49898 3.20007 4.73609C3.20007 5.97321 4.20296 6.97609 5.44007 6.97609Z" stroke="#6681B9" stroke-width="2.24" stroke-linecap="round" stroke-linejoin="round"/>
</svg>
