<svg width="112" height="85" viewBox="0 0 112 85" fill="none" xmlns="http://www.w3.org/2000/svg">
<rect width="111.2" height="84.8" rx="6.4" fill="black"/>
<g filter="url(#filter0_i_651_460)">
<path d="M46.3529 10.4402L39.2611 12.954L51.295 50.8394C55.491 49.5066 57.7895 45.0023 56.4064 40.8226L46.3529 10.4402Z" fill="url(#paint0_linear_651_460)" fill-opacity="0.6"/>
<path d="M62.1619 21.8088L55.4717 25.2473L67.8653 50.834C71.8219 48.9174 73.44 44.1301 71.4574 40.2062L62.1619 21.8088Z" fill="url(#paint1_linear_651_460)" fill-opacity="0.6"/>
<path d="M37.466 17.5517C37.9489 13.1599 41.9006 9.99106 46.2924 10.4739L42.1831 47.8487C41.9417 50.0446 39.9658 51.6291 37.7699 51.3876C35.574 51.1462 33.9896 49.1703 34.231 46.9744L37.466 17.5517Z" fill="url(#paint2_linear_651_460)"/>
<path d="M53.9724 28.6973C54.5318 24.3146 58.5382 21.2152 62.9209 21.7747C61.5993 30.6952 60.8046 36.64 59.9594 43.9576C59.4553 48.3218 55.4967 51.4519 51.1388 50.8956L53.9724 28.6973Z" fill="url(#paint3_linear_651_460)"/>
<path d="M69.0169 36.7163C69.2584 34.5204 71.2342 32.936 73.4301 33.1774C75.626 33.4188 77.2104 35.3947 76.969 37.5906L76.2202 44.4012C75.7373 48.793 71.7856 51.9619 67.3938 51.479L69.0169 36.7163Z" fill="url(#paint4_linear_651_460)"/>
</g>
<g filter="url(#filter1_i_651_460)">
<path d="M24.114 67.3535V65.2832H26.6765V59.0566H24.114V56.9863H28.0593L30.1375 59.0566V65.2832L28.0593 67.3535H24.114ZM20.114 56.9863H23.5671V67.3535H20.114V56.9863ZM31.5671 65.1426H32.6062V59.1895H31.5671V56.9863H37.0984V59.1895H36.0593V65.1426H37.0984V67.3535H31.5671V65.1426ZM38.2625 65.416L45.0359 56.9863H47.3796V58.9941L40.5359 67.3535H38.2625V65.416ZM47.239 67.3535H41.2312L43.2 65.0801H47.239V67.3535ZM38.4734 56.9863H44.3562L42.3953 59.252H38.4734V56.9863ZM55.5125 66.2207H52.1218L52.8406 64.166H54.7156L51.9421 56.9863H55.3093L59.4421 67.3535H55.95L55.5125 66.2207ZM51.2 67.3535H47.864L51.5671 57.4551L53.0984 61.5723L51.2 67.3535ZM70.3796 67.3535H66.7078L60.4265 56.9863H64.075L70.3796 67.3535ZM60.4265 67.3535V57.9707L63.4343 62.9004V67.3535H60.4265ZM70.3796 56.9863V66.3691L67.3718 61.416V56.9863H70.3796ZM72.0515 65.1426H73.0906V59.1895H72.0515V56.9863H77.5828V59.1895H76.5437V65.1426H77.5828V67.3535H72.0515V65.1426ZM86.0593 66.2207H82.6687L83.3875 64.166H85.2625L82.489 56.9863H85.8562L89.989 67.3535H86.4968L86.0593 66.2207ZM81.7468 67.3535H78.4109L82.114 57.4551L83.6453 61.5723L81.7468 67.3535Z" fill="#A2A2A2"/>
</g>
<defs>
<filter id="filter0_i_651_460" x="34.2068" y="9.62578" width="42.7865" height="41.9016" filterUnits="userSpaceOnUse" color-interpolation-filters="sRGB">
<feFlood flood-opacity="0" result="BackgroundImageFix"/>
<feBlend mode="normal" in="SourceGraphic" in2="BackgroundImageFix" result="shape"/>
<feColorMatrix in="SourceAlpha" type="matrix" values="0 0 0 0 0 0 0 0 0 0 0 0 0 0 0 0 0 0 127 0" result="hardAlpha"/>
<feOffset dy="-0.8"/>
<feGaussianBlur stdDeviation="1.6"/>
<feComposite in2="hardAlpha" operator="arithmetic" k2="-1" k3="1"/>
<feColorMatrix type="matrix" values="0 0 0 0 0 0 0 0 0 0 0 0 0 0 0 0 0 0 1 0"/>
<feBlend mode="normal" in2="shape" result="effect1_innerShadow_651_460"/>
</filter>
<filter id="filter1_i_651_460" x="20.114" y="56.9863" width="69.875" height="13.5672" filterUnits="userSpaceOnUse" color-interpolation-filters="sRGB">
<feFlood flood-opacity="0" result="BackgroundImageFix"/>
<feBlend mode="normal" in="SourceGraphic" in2="BackgroundImageFix" result="shape"/>
<feColorMatrix in="SourceAlpha" type="matrix" values="0 0 0 0 0 0 0 0 0 0 0 0 0 0 0 0 0 0 127 0" result="hardAlpha"/>
<feOffset dy="3.2"/>
<feGaussianBlur stdDeviation="1.6"/>
<feComposite in2="hardAlpha" operator="arithmetic" k2="-1" k3="1"/>
<feColorMatrix type="matrix" values="0 0 0 0 0 0 0 0 0 0 0 0 0 0 0 0 0 0 0.25 0"/>
<feBlend mode="normal" in2="shape" result="effect1_innerShadow_651_460"/>
</filter>
<linearGradient id="paint0_linear_651_460" x1="47.3939" y1="25.5992" x2="55.1073" y2="49.6285" gradientUnits="userSpaceOnUse">
<stop offset="0.447917" stop-color="#303CDE"/>
<stop offset="1" stop-color="#303CDE" stop-opacity="0"/>
</linearGradient>
<linearGradient id="paint1_linear_651_460" x1="58.994" y1="23.3433" x2="71.4653" y2="49.0902" gradientUnits="userSpaceOnUse">
<stop offset="0.494792" stop-color="#303CDE"/>
<stop offset="1" stop-color="#303CDE" stop-opacity="0"/>
</linearGradient>
<linearGradient id="paint2_linear_651_460" x1="36.9939" y1="47.9996" x2="44.9939" y2="6.39961" gradientUnits="userSpaceOnUse">
<stop offset="0.182292" stop-color="#C018CE"/>
<stop offset="1" stop-color="#0A7ACC"/>
</linearGradient>
<linearGradient id="paint3_linear_651_460" x1="54.3628" y1="49.5553" x2="62.0085" y2="24.0848" gradientUnits="userSpaceOnUse">
<stop offset="0.296875" stop-color="#C018CE"/>
<stop offset="1" stop-color="#0A7ACC"/>
</linearGradient>
<linearGradient id="paint4_linear_651_460" x1="73.4301" y1="33.1774" x2="69.7939" y2="52.7998" gradientUnits="userSpaceOnUse">
<stop offset="0.255208" stop-color="#C018CE"/>
<stop offset="1" stop-color="#2240E0"/>
</linearGradient>
</defs>
</svg>
