<svg width="55" height="54" viewBox="0 0 55 54" fill="none" xmlns="http://www.w3.org/2000/svg">
<g filter="url(#filter0_i_228_867)">
<path d="M15.6987 1.05127L6.83397 4.19352L21.8763 51.5503C27.1214 49.8842 29.9945 44.2539 28.2656 39.0292L15.6987 1.05127Z" fill="url(#paint0_linear_228_867)" fill-opacity="0.6"/>
<path d="M35.4598 15.2615L27.097 19.5596L42.589 51.5429C47.5348 49.1473 49.5574 43.1632 47.0791 38.2582L35.4598 15.2615Z" fill="url(#paint1_linear_228_867)" fill-opacity="0.6"/>
<path d="M4.59021 9.94008C5.1938 4.45033 10.1334 0.489308 15.6232 1.0929L10.4866 47.8114C10.1848 50.5563 7.71496 52.5368 4.97008 52.235C2.22521 51.9332 0.244698 49.4634 0.546492 46.7185L4.59021 9.94008Z" fill="url(#paint2_linear_228_867)"/>
<path d="M25.2231 23.8719C25.9224 18.3935 30.9304 14.5193 36.4087 15.2186C34.7567 26.3693 33.7633 33.8003 32.7068 42.9473C32.0767 48.4025 27.1284 52.3151 21.6811 51.6197L25.2231 23.8719Z" fill="url(#paint3_linear_228_867)"/>
<path d="M44.0285 33.8956C44.3303 31.1507 46.8001 29.1702 49.545 29.472C52.2899 29.7738 54.2704 32.2436 53.9686 34.9885L53.0326 43.5018C52.429 48.9915 47.4893 52.9526 41.9996 52.349L44.0285 33.8956Z" fill="url(#paint4_linear_228_867)"/>
</g>
<defs>
<filter id="filter0_i_228_867" x="0.516113" y="0.0321045" width="53.4829" height="52.3777" filterUnits="userSpaceOnUse" color-interpolation-filters="sRGB">
<feFlood flood-opacity="0" result="BackgroundImageFix"/>
<feBlend mode="normal" in="SourceGraphic" in2="BackgroundImageFix" result="shape"/>
<feColorMatrix in="SourceAlpha" type="matrix" values="0 0 0 0 0 0 0 0 0 0 0 0 0 0 0 0 0 0 127 0" result="hardAlpha"/>
<feOffset dy="-1"/>
<feGaussianBlur stdDeviation="2"/>
<feComposite in2="hardAlpha" operator="arithmetic" k2="-1" k3="1"/>
<feColorMatrix type="matrix" values="0 0 0 0 0 0 0 0 0 0 0 0 0 0 0 0 0 0 1 0"/>
<feBlend mode="normal" in2="shape" result="effect1_innerShadow_228_867"/>
</filter>
<linearGradient id="paint0_linear_228_867" x1="17" y1="20" x2="26.6418" y2="50.0366" gradientUnits="userSpaceOnUse">
<stop offset="0.447917" stop-color="#303CDE"/>
<stop offset="1" stop-color="#303CDE" stop-opacity="0"/>
</linearGradient>
<linearGradient id="paint1_linear_228_867" x1="31.4999" y1="17.1797" x2="47.089" y2="49.3632" gradientUnits="userSpaceOnUse">
<stop offset="0.494792" stop-color="#303CDE"/>
<stop offset="1" stop-color="#303CDE" stop-opacity="0"/>
</linearGradient>
<linearGradient id="paint2_linear_228_867" x1="4" y1="48" x2="14" y2="-3.99999" gradientUnits="userSpaceOnUse">
<stop offset="0.182292" stop-color="#C018CE"/>
<stop offset="1" stop-color="#0A7ACC"/>
</linearGradient>
<linearGradient id="paint3_linear_228_867" x1="25.7111" y1="49.9443" x2="35.2683" y2="18.1063" gradientUnits="userSpaceOnUse">
<stop offset="0.296875" stop-color="#C018CE"/>
<stop offset="1" stop-color="#0A7ACC"/>
</linearGradient>
<linearGradient id="paint4_linear_228_867" x1="49.545" y1="29.472" x2="44.9997" y2="54" gradientUnits="userSpaceOnUse">
<stop offset="0.255208" stop-color="#C018CE"/>
<stop offset="1" stop-color="#2240E0"/>
</linearGradient>
</defs>
</svg>
