<svg width="112" height="85" viewBox="0 0 112 85" fill="none" xmlns="http://www.w3.org/2000/svg">
<rect width="111.2" height="84.8" rx="6.4" fill="black"/>
<g filter="url(#filter0_i_453_169)">
<path d="M46.3531 10.4412L39.2613 12.955L51.2952 50.8404C55.4913 49.5076 57.7897 45.0033 56.4066 40.8236L46.3531 10.4412Z" fill="url(#paint0_linear_453_169)" fill-opacity="0.6"/>
<path d="M62.1618 21.8088L55.4715 25.2473L67.8652 50.834C71.8218 48.9174 73.4399 44.1301 71.4573 40.2062L62.1618 21.8088Z" fill="url(#paint1_linear_453_169)" fill-opacity="0.6"/>
<path d="M37.4665 17.5517C37.9494 13.1599 41.9011 9.99106 46.2929 10.4739L42.1836 47.8487C41.9422 50.0446 39.9663 51.6291 37.7704 51.3876C35.5745 51.1462 33.9901 49.1703 34.2315 46.9744L37.4665 17.5517Z" fill="url(#paint2_linear_453_169)"/>
<path d="M53.9724 28.6973C54.5318 24.3146 58.5382 21.2152 62.9209 21.7747C61.5993 30.6952 60.8046 36.64 59.9594 43.9576C59.4553 48.3218 55.4967 51.4519 51.1388 50.8956L53.9724 28.6973Z" fill="url(#paint3_linear_453_169)"/>
<path d="M69.0169 36.7163C69.2584 34.5204 71.2342 32.936 73.4301 33.1774C75.626 33.4188 77.2104 35.3947 76.969 37.5906L76.2202 44.4012C75.7373 48.793 71.7856 51.9619 67.3938 51.479L69.0169 36.7163Z" fill="url(#paint4_linear_453_169)"/>
</g>
<g filter="url(#filter1_i_453_169)">
<path d="M24.1143 67.3535V65.2832H26.6768V59.0566H24.1143V56.9863H28.0596L30.1377 59.0566V65.2832L28.0596 67.3535H24.1143ZM20.1143 56.9863H23.5674V67.3535H20.1143V56.9863ZM31.5674 65.1426H32.6064V59.1895H31.5674V56.9863H37.0986V59.1895H36.0596V65.1426H37.0986V67.3535H31.5674V65.1426ZM38.2627 65.416L45.0361 56.9863H47.3799V58.9941L40.5361 67.3535H38.2627V65.416ZM47.2393 67.3535H41.2314L43.2002 65.0801H47.2393V67.3535ZM38.4736 56.9863H44.3564L42.3955 59.252H38.4736V56.9863ZM55.5127 66.2207H52.1221L52.8408 64.166H54.7158L51.9424 56.9863H55.3096L59.4424 67.3535H55.9502L55.5127 66.2207ZM51.2002 67.3535H47.8643L51.5674 57.4551L53.0986 61.5723L51.2002 67.3535ZM70.3799 67.3535H66.708L60.4268 56.9863H64.0752L70.3799 67.3535ZM60.4268 67.3535V57.9707L63.4346 62.9004V67.3535H60.4268ZM70.3799 56.9863V66.3691L67.3721 61.416V56.9863H70.3799ZM72.0518 65.1426H73.0908V59.1895H72.0518V56.9863H77.583V59.1895H76.5439V65.1426H77.583V67.3535H72.0518V65.1426ZM86.0596 66.2207H82.6689L83.3877 64.166H85.2627L82.4893 56.9863H85.8564L89.9893 67.3535H86.4971L86.0596 66.2207ZM81.7471 67.3535H78.4111L82.1143 57.4551L83.6455 61.5723L81.7471 67.3535Z" fill="#A2A2A2"/>
</g>
<defs>
<filter id="filter0_i_453_169" x="34.207" y="9.62578" width="42.7861" height="41.9016" filterUnits="userSpaceOnUse" color-interpolation-filters="sRGB">
<feFlood flood-opacity="0" result="BackgroundImageFix"/>
<feBlend mode="normal" in="SourceGraphic" in2="BackgroundImageFix" result="shape"/>
<feColorMatrix in="SourceAlpha" type="matrix" values="0 0 0 0 0 0 0 0 0 0 0 0 0 0 0 0 0 0 127 0" result="hardAlpha"/>
<feOffset dy="-0.8"/>
<feGaussianBlur stdDeviation="1.6"/>
<feComposite in2="hardAlpha" operator="arithmetic" k2="-1" k3="1"/>
<feColorMatrix type="matrix" values="0 0 0 0 0 0 0 0 0 0 0 0 0 0 0 0 0 0 1 0"/>
<feBlend mode="normal" in2="shape" result="effect1_innerShadow_453_169"/>
</filter>
<filter id="filter1_i_453_169" x="20.1143" y="56.9863" width="69.875" height="13.5672" filterUnits="userSpaceOnUse" color-interpolation-filters="sRGB">
<feFlood flood-opacity="0" result="BackgroundImageFix"/>
<feBlend mode="normal" in="SourceGraphic" in2="BackgroundImageFix" result="shape"/>
<feColorMatrix in="SourceAlpha" type="matrix" values="0 0 0 0 0 0 0 0 0 0 0 0 0 0 0 0 0 0 127 0" result="hardAlpha"/>
<feOffset dy="3.2"/>
<feGaussianBlur stdDeviation="1.6"/>
<feComposite in2="hardAlpha" operator="arithmetic" k2="-1" k3="1"/>
<feColorMatrix type="matrix" values="0 0 0 0 0 0 0 0 0 0 0 0 0 0 0 0 0 0 0.25 0"/>
<feBlend mode="normal" in2="shape" result="effect1_innerShadow_453_169"/>
</filter>
<linearGradient id="paint0_linear_453_169" x1="47.3941" y1="25.6002" x2="55.1076" y2="49.6295" gradientUnits="userSpaceOnUse">
<stop offset="0.447917" stop-color="#303CDE"/>
<stop offset="1" stop-color="#303CDE" stop-opacity="0"/>
</linearGradient>
<linearGradient id="paint1_linear_453_169" x1="58.9938" y1="23.3433" x2="71.4651" y2="49.0902" gradientUnits="userSpaceOnUse">
<stop offset="0.494792" stop-color="#303CDE"/>
<stop offset="1" stop-color="#303CDE" stop-opacity="0"/>
</linearGradient>
<linearGradient id="paint2_linear_453_169" x1="36.9943" y1="47.9996" x2="44.9944" y2="6.39961" gradientUnits="userSpaceOnUse">
<stop offset="0.182292" stop-color="#C018CE"/>
<stop offset="1" stop-color="#0A7ACC"/>
</linearGradient>
<linearGradient id="paint3_linear_453_169" x1="54.3628" y1="49.5553" x2="62.0085" y2="24.0848" gradientUnits="userSpaceOnUse">
<stop offset="0.296875" stop-color="#C018CE"/>
<stop offset="1" stop-color="#0A7ACC"/>
</linearGradient>
<linearGradient id="paint4_linear_453_169" x1="73.4301" y1="33.1774" x2="69.7939" y2="52.7998" gradientUnits="userSpaceOnUse">
<stop offset="0.255208" stop-color="#C018CE"/>
<stop offset="1" stop-color="#2240E0"/>
</linearGradient>
</defs>
</svg>
