<svg width="28" height="28" viewBox="0 0 28 28" fill="none" xmlns="http://www.w3.org/2000/svg">
<g clip-path="url(#clip0_467_395)">
<path d="M26.6002 3.61575C25.5277 4.37229 24.3402 4.95092 23.0834 5.32935C22.4089 4.55377 21.5124 4.00405 20.5153 3.75455C19.5181 3.50505 18.4684 3.56781 17.5081 3.93434C16.5478 4.30087 15.7233 4.95348 15.1459 5.80392C14.5686 6.65435 14.2664 7.66157 14.2802 8.68935V9.80935C12.312 9.86039 10.3616 9.42387 8.60293 8.53865C6.84424 7.65344 5.33176 6.34703 4.20021 4.73575C4.20021 4.73575 -0.279795 14.8158 9.80021 19.2958C7.4936 20.8615 4.74582 21.6466 1.96021 21.5358C12.0402 27.1358 24.3602 21.5358 24.3602 8.65575C24.3592 8.34378 24.3292 8.03258 24.2706 7.72615C25.4137 6.59887 26.2203 5.17559 26.6002 3.61575Z" stroke="#6681B9" stroke-width="2.24" stroke-linecap="round" stroke-linejoin="round"/>
</g>
<defs>
<clipPath id="clip0_467_395">
<rect width="26.88" height="26.88" fill="white" transform="translate(0.840088 0.255859)"/>
</clipPath>
</defs>
</svg>
